<?xml version="1.0" encoding="utf-8"?>
<!-- Generator: Adobe Illustrator 28.1.0, SVG Export Plug-In . SVG Version: 6.00 Build 0)  -->
<svg version="1.1" id="Layer_1" xmlns="http://www.w3.org/2000/svg" xmlns:xlink="http://www.w3.org/1999/xlink" x="0px" y="0px"
	 viewBox="0 0 129 29" style="enable-background:new 0 0 129 29;" xml:space="preserve">
<style type="text/css">
	.st0{fill:#E49764;}
	.st1{fill:#E6432A;}
	.st2{fill:#808185;}
	.st3{fill:#231F20;}
	.st4{fill:#2FA419;}
	.st5{fill:#FEFDFD;}
	.st6{fill:#2FA51B;}
	.st7{fill:#30A41B;}
	.st8{fill:#2FA41B;}
	.st9{fill:#2FA51A;}
	.st10{fill:#2FA41A;}
	.st11{fill:#2FA519;}
	.st12{fill:#30A41A;}
</style>
<path class="st0" d="M28.8,16.7c0.1-0.4,0.3-0.5,0.7-0.5c2.2,0,4.4,0,6.6,0c2.2,0,4.5,0,6.7,0c0.5,0,0.6,0.2,0.6,0.6
	c0,1.3,0,2.6,0,3.9c0,0.4,0.1,0.5,0.5,0.5c1.2,0,2.3,0,3.5,0c0.3,0,0.4-0.1,0.4-0.4c0-0.9-0.1-1.7,0-2.6c0.2-1.3,1.3-2,2.7-1.9
	c1.3,0.1,2.1,1.2,2.1,2.8c0,2.2,0,2.2,2.1,2.2c2.3,0,2.3,0,2.3-2.4c0-2.6,0-2.6,2.5-2.6c1.5,0,2.5-1,2.5-2.4s-1-2.4-2.5-2.4
	c-10.2,0-20.4,0-30.6,0c-0.4,0-0.5-0.1-0.7-0.4c-1.8-3.6-5.7-5.4-9.6-4.2c-3.6,1.1-6.1,4.7-5.7,8.4c0.4,3.9,3.5,7,7.3,7.3
	C24.2,22.9,27.7,20.4,28.8,16.7z M16.9,14.5c0-2.3,1.9-4.1,4.2-4.1s4.1,1.8,4.2,4.1c0,2.3-1.9,4.2-4.2,4.2S16.9,16.8,16.9,14.5z"/>
<g>
	<path class="st1" d="M109.6,28.8L109.6,28.8c-0.6,0-1,0.1-1.2-0.6s-1.1-1.1-1.9-1s-1.3,0.7-1.5,1.4c0,0.1-0.1,0.2-0.2,0.2
		c-0.2,0-0.3,0-0.5,0c-0.6,0-1.1,0.1-1.3-0.7c-0.2-0.7-1.1-1-1.8-0.9c-0.7,0.1-1.3,0.6-1.5,1.4c0,0.2-0.1,0.3-0.3,0.3
		c-0.7,0-1.3,0-2,0c-0.2,0-0.3,0-0.3-0.2c-0.1-0.8-0.8-1.4-1.7-1.4c-0.9,0-1.7,0.5-1.8,1.3c-0.1,0.3-0.2,0.4-0.5,0.4
		c-0.1,0-0.1,0-0.2,0c-0.5,0.1-0.8,0-1-0.6c-0.2-0.7-0.8-1-1.4-1c-0.2,0-0.2-0.2-0.2-0.3c0.1-0.2-0.2-0.5,0.2-0.5
		c0.9-0.1,1.6-0.8,1.6-1.6c0-0.8-0.7-1.5-1.6-1.6c-0.4-0.1-0.1-0.4-0.2-0.6c0-0.1,0-0.3,0.2-0.3c0.9-0.1,1.6-0.8,1.6-1.6
		c0-0.8-0.7-1.5-1.6-1.6c-0.2,0-0.3-0.1-0.2-0.3c0.1-0.2-0.2-0.5,0.2-0.6c1-0.2,1.6-0.8,1.6-1.6c0-0.8-0.7-1.4-1.6-1.6
		c-0.4-0.1-0.1-0.4-0.2-0.6c0-0.1,0-0.2,0.2-0.2c0.9-0.1,1.6-0.8,1.6-1.6s-0.6-1.5-1.5-1.6c-0.3,0-0.3-0.2-0.3-0.4s-0.1-0.5,0.3-0.5
		c0.9-0.1,1.5-0.8,1.5-1.6s-0.7-1.5-1.6-1.6c-0.2,0-0.2-0.1-0.2-0.3c0.1-0.2-0.2-0.5,0.2-0.6c0.9-0.1,1.6-0.8,1.6-1.6
		S91.4,3.1,90.5,3c-0.4-0.1-0.2-0.4-0.2-0.6c-0.1-0.2,0-0.3,0.3-0.3C91.4,2,92,1.5,92.1,0.7c0-0.2,0.1-0.2,0.2-0.2s0.2,0,0.2,0
		c0.5,0,1-0.1,1.1,0.7c0.2,0.7,1.1,1.1,1.9,1s1.4-0.7,1.5-1.4c0-0.2,0.1-0.2,0.3-0.2c0.7,0,1.4,0,2.1,0c0.2,0,0.2,0,0.3,0.2
		c0.1,0.9,0.9,1.4,1.8,1.4s1.6-0.6,1.7-1.5c0-0.2,0.1-0.2,0.2-0.2s0.3,0,0.4,0c0.6,0,1.2-0.2,1.4,0.7c0.2,0.7,1.1,1,1.9,0.9
		c0.8-0.1,1.3-0.7,1.4-1.5c0-0.1,0.1-0.1,0.2-0.1c0.6,0,1.1,0,1.7,0c0.1,0,0.2,0,0.2,0.1c0.2,0.9,0.6,1.3,1.5,1.5
		c0.4,0.1,0.1,0.4,0.2,0.6c0.1,0.2,0,0.2-0.2,0.3c-0.9,0.1-1.5,0.8-1.5,1.6s0.6,1.5,1.5,1.6c0.2,0,0.3,0.1,0.2,0.3
		c-0.1,0.2,0.2,0.5-0.2,0.6c-0.9,0.1-1.5,0.8-1.5,1.6s0.6,1.4,1.5,1.6c0.5,0.1,0.1,0.4,0.2,0.6c0.1,0.2-0.1,0.2-0.2,0.2
		c-0.8,0.1-1.5,0.8-1.5,1.6s0.6,1.5,1.5,1.6c0.2,0,0.3,0.1,0.2,0.3c-0.1,0.2,0.2,0.5-0.2,0.6c-0.8,0.1-1.4,0.8-1.5,1.6
		c0,0.8,0.6,1.5,1.5,1.6c0.2,0,0.3,0.1,0.2,0.3c-0.1,0.2,0.2,0.5-0.2,0.6c-0.9,0.2-1.5,0.8-1.5,1.6c0,0.8,0.6,1.4,1.5,1.6
		c0.4,0.1,0.1,0.4,0.2,0.6c0.1,0.1,0,0.2-0.2,0.3c-0.9,0.1-1.5,0.8-1.5,1.6c0,0.8,0.6,1.5,1.5,1.6c0.2,0,0.2,0.2,0.2,0.3
		c-0.1,0.2,0.2,0.5-0.2,0.6c-0.8,0.1-1.4,0.6-1.5,1.5c0,0.1-0.1,0.2-0.2,0.2C110.2,28.8,109.9,28.8,109.6,28.8L109.6,28.8z"/>
	<path class="st2" d="M104.5,16.4c0.5,0.9,1.1,1.8,1.6,2.6c1.1,1.8,2.2,3.6,3.3,5.4c0.1,0.1,0.3,0.3-0.1,0.3c-2.3,0-4.6,0-6.9,0
		c-0.2,0-0.3,0-0.5,0c-1.2-0.1-2.1-0.8-2.6-1.8c-0.4-0.7-0.5-1.4-0.5-2.2c0-1.5,0-3,0-4.5c0-0.3-0.1-0.5-0.3-0.7
		c-0.9-0.8-1.5-1.8-1.6-3c-0.1-0.9,0-1.8,0.5-2.6c0.3-0.6,0.8-1.2,1.4-1.6c0.1-0.1,0.1-0.1,0.2-0.2C99,8,99,8,99.1,8
		c0.3-0.1,0.6-0.3,0.9-0.4c1.7-0.6,3.7,0,4.9,1.4c1.1,1.3,1.3,2.7,0.9,4.3c-0.2,0.8-0.7,1.5-1.3,2.1c-0.1,0.1-0.2,0.1-0.2,0.2
		c0,0.1,0,0.2,0,0.2C104.4,16.1,104.5,16.2,104.5,16.4z"/>
	<path class="st3" d="M97.4,9.9c-1,2.3-0.5,4.2,1.3,5.7c0.1,0.1,0.1,0.2,0.1,0.3c0,1.4,0,2.8,0,4.1c-0.1,2.4,1,4.4,3.6,4.6
		c-3,0-6,0-9,0c-0.1,0-0.1,0-0.2,0c0-0.1,0-0.1,0.1-0.2c1.7-2.7,3.3-5.4,5-8c0.1-0.2,0.1-0.3-0.1-0.4c-2.1-1.4-3.2-3.3-3.1-5.8
		c0.1-2.7,1.5-4.7,4-5.8c4-1.8,8.6,0.9,9.1,5.4c0.3,2.8-1.2,5.4-3.7,6.6c-0.1-0.2-0.2-0.3-0.3-0.5c0-0.1,0.2-0.1,0.3-0.2
		c1.7-0.8,2.7-2.1,3-3.9c0.3-2.2-0.8-4.3-2.7-5.2c-0.7-0.4-1.5-0.6-2.3-0.6c-1.5,0-2.9,0.6-3.9,1.8C98.5,7.9,98.5,8,98.4,8
		s-0.2,0-0.3-0.1c-0.4-0.2-0.8-0.3-1.2-0.4c-0.1,0-0.1-0.1-0.2,0s0,0.2,0,0.2c0.2,0.6,0.4,1.1,0.6,1.7C97.4,9.5,97.5,9.7,97.4,9.9z"
		/>
	<path class="st4" d="M104.2,15.7c-0.3-0.1-0.1-0.2,0-0.2c1.5-1.3,2-2.9,1.5-4.8c-0.7-2.7-3.8-4-6.3-2.8c0,0.1-0.2,0.2-0.3,0.1
		c0-0.1,0.1-0.2,0.1-0.2c1.4-1.2,3-1.5,4.8-0.9s2.8,2,3.1,3.8c0.2,1.5-0.2,2.8-1.2,3.9c-0.4,0.4-0.8,0.8-1.4,1
		C104.4,15.7,104.3,15.8,104.2,15.7z"/>
	<path class="st5" d="M104.2,15.7c1.7-0.7,2.9-2.4,2.9-4.3S106,7.8,104.2,7c-1.7-0.7-3.7-0.3-5,1l-0.1,0.1c-0.2,0-0.4,0-0.6-0.2
		c1.2-1.7,3.6-2.4,5.6-1.8c2.3,0.8,3.6,2.7,3.6,5C107.7,13.2,106.3,15.2,104.2,15.7C104.1,15.8,104.2,15.8,104.2,15.7z"/>
	<path class="st3" d="M100.7,10.5c0-0.7,0.6-1.3,1.3-1.3c0.7,0,1.2,0.6,1.2,1.3s-0.6,1.3-1.3,1.2C101.2,11.8,100.7,11.2,100.7,10.5z
		"/>
	<path class="st1" d="M98.4,7.9C98.6,8,98.8,8.1,99,8.1c-0.6,0.5-1.2,1-1.5,1.8c-0.3-0.8-0.6-1.6-0.9-2.4V7.4h0.1
		C97.2,7.5,97.8,7.7,98.4,7.9z"/>
</g>
<g>
	<path class="st6" d="M21.7-4.9c1.1,1.1,2.7,1.8,3.5,3.3c0.3,0.6,0.6,1.3,1.5,1.2c0.2,0,0.4,0.3,0.5,0.5c0.1,0.1-0.1,0.4-0.2,0.5
		c-2.2,0.7-2.8,3.3-4.8,4.2c-0.3,0.1-0.5,0.5-0.9,0.2s-0.2-0.6,0-0.9c1-1.2,1.4-2.9,3-3.7c0.5-0.2,0.3-0.5,0-0.7
		c-1.6-0.8-2-2.5-3-3.7C21-4.3,21.1-4.6,21.7-4.9z"/>
	<path class="st7" d="M109.2-4.9c1.2,1.2,2.8,1.9,3.7,3.5c0.3,0.5,0.5,1,1.3,0.9c0.2,0,0.5,0.3,0.6,0.6c0,0.1-0.1,0.4-0.2,0.4
		c-2.2,0.6-2.6,3.3-4.7,4.1c-0.3,0.1-0.5,0.8-1,0.3c-0.5-0.4,0.1-0.7,0.3-1.1c0.9-1.2,1.4-2.8,2.9-3.5c0.4-0.2,0.1-0.5-0.2-0.7
		c-1.5-0.8-2-2.5-3-3.7C108.5-4.3,108.7-4.7,109.2-4.9z"/>
	<path class="st7" d="M52.6-4.9c1.1,1.1,2.7,1.8,3.5,3.2c0.4,0.6,0.6,1.3,1.6,1.3c0.2,0,0.4,0.3,0.5,0.5c0,0.1-0.1,0.4-0.2,0.5
		c-2.2,0.6-2.7,3.3-4.7,4.2c-0.3,0.1-0.5,0.6-0.9,0.3c-0.4-0.3-0.3-0.6,0-0.9c1-1.2,1.4-2.9,3-3.7c0.4-0.2,0.3-0.5,0-0.7
		c-1.6-0.8-2-2.5-3-3.7C51.9-4.3,52.1-4.6,52.6-4.9z"/>
	<path class="st8" d="M2,4.5c1.2-1.1,1.4-2.9,2.9-3.7c0.9-0.5,0.8-0.8,0-1.3C3.4-1.3,3.1-2.9,2.1-4C2-4.1,2.1-4.5,2.2-4.7
		c0-0.1,0.5-0.1,0.6,0c1.2,1.2,2.9,2,3.6,3.6c0.2,0.4,0.4,0.7,0.9,0.6c0.4-0.1,0.8,0.2,0.9,0.6c0,0.5-0.4,0.6-0.8,0.6
		c-1.1,0-1,1.2-1.7,1.7C4.7,3.3,3.8,4.2,2.8,5C2.4,5.4,2.1,5,2,4.5z"/>
	<path class="st9" d="M83.6,0.3c-2.1,0.3-2.4,2.4-3.9,3.4c-0.5,0.4-1,0.8-1.5,1.2C78,5,77.7,5,77.4,5c0-0.2-0.2-0.6-0.1-0.7
		c1.1-1.2,1.4-3,3-3.7C80.7,0.4,81,0,80.5-0.2c-1.5-0.8-2-2.4-3-3.6c-0.2-0.3-0.5-0.6-0.1-1C77.8-5,78-4.6,78.3-4.4
		c2.1,0.9,2.6,3.5,4.8,4.1C83.2-0.3,83.3,0,83.6,0.3z"/>
	<path class="st6" d="M95.6,0.1c-0.1,1.1-1.3,0.3-1.6,1.1c-0.7,1.7-2.3,2.6-3.6,3.8c-0.1,0.1-0.5,0.1-0.7,0
		c-0.1-0.1-0.2-0.5-0.1-0.7c1.1-1.2,1.4-3,3.1-3.8c0.4-0.2,0.4-0.5,0.1-0.7c-1.6-0.8-2-2.4-3.1-3.6c-0.3-0.3-0.4-0.6,0-0.9
		c0.2-0.1,0.5,0,0.8,0.1c2,1,2.7,3.5,4.9,4.3C95.5-0.2,95.6,0,95.6,0.1z"/>
	<path class="st10" d="M71-4.9c1.2,1.2,2.8,1.9,3.7,3.5c0.3,0.5,0.5,1,1.3,0.9c0.2,0,0.5,0.2,0.6,0.4c0.1,0.1-0.1,0.6-0.2,0.6
		c-2.3,0.6-2.7,3.3-4.8,4.1c-0.3,0.1-0.6,0.6-1,0.2c-0.3-0.3-0.1-0.6,0.2-0.9c1-1.2,1.4-2.9,2.9-3.6c0.4-0.2,0.3-0.5,0-0.7
		c-1.6-0.8-2-2.5-3-3.7C70.4-4.2,70.4-4.7,71-4.9z"/>
	<path class="st8" d="M8.7-4.9c1.1,0.9,2.1,1.8,3.1,2.7c0.7,0.7,0.9,1.8,2.1,1.9c0.4,0,0.6,0.7,0.2,0.9c-2.3,0.7-2.7,3.3-4.8,4.2
		C8.9,4.9,8.7,5.3,8.4,5C8,4.7,8.2,4.3,8.5,4c1-1.2,1.4-2.8,3-3.6c0.4-0.2,0.2-0.5-0.1-0.7c-1.5-0.8-2-2.5-3-3.7
		C8.2-4.1,8.2-4.4,8.2-4.6C8.3-4.7,8.5-4.8,8.7-4.9z"/>
	<path class="st9" d="M127,0.1c-0.1,1-1.3,0.2-1.6,1c-0.7,1.7-2.3,2.6-3.6,3.8c-0.3,0.3-0.6,0.3-0.8,0.1c-0.1-0.1-0.1-0.6,0-0.7
		c1.1-1.2,1.4-3,3.1-3.8c0.4-0.2,0.4-0.5,0-0.7c-1.6-0.8-2-2.4-3-3.7c-0.1-0.1,0-0.5-0.1-0.8c0.2,0,0.6-0.2,0.7-0.1
		c1.2,1.2,2.9,1.9,3.6,3.6C125.6-0.2,126.9-0.9,127,0.1z"/>
	<path class="st7" d="M64.3,4.6c1.2-1.2,1.5-3.1,3.1-4c0.3-0.2,1-0.4,0.3-0.8c-1.5-0.8-2-2.5-3-3.7c-0.3-0.3-0.3-0.7,0-0.9
		c0.2-0.1,0.5,0.1,0.8,0.2c2,0.9,2.7,3.5,4.9,4.2c0.4,0.1,0.4,0.7,0,0.8c-2.2,0.8-2.8,3.4-4.9,4.3c-0.2,0.1-0.5,0.2-0.7,0.2
		C64.6,5,64.5,4.8,64.3,4.6z"/>
	<path class="st6" d="M34.4-4.9c1.3,1.1,2.9,1.9,3.8,3.6C38.3-1,38.4-0.5,39-0.5c0.5,0,1,0.1,1,0.7s-0.7,0.3-1,0.6
		c-1.4,1.3-2.3,3-4,3.9c-0.3,0.2-0.5,0.7-0.9,0.3c-0.3-0.3-0.1-0.6,0.1-0.9c1-1.2,1.4-2.9,2.9-3.6c0.4-0.2,0.4-0.5,0-0.7
		c-1.6-0.8-2-2.5-3-3.7C33.7-4.3,33.8-4.6,34.4-4.9z"/>
	<path class="st8" d="M102.5,4.6c1.1-1.3,1.4-3.1,3.1-3.9c0.7-0.3,0.7-0.6,0-1c-1.5-0.8-1.9-2.5-3-3.7c-0.1-0.1,0-0.5,0.2-0.7
		c0.1-0.1,0.4,0,0.6,0.1c1.2,1.2,2.8,2,3.6,3.6c0.2,0.4,0.5,0.6,1,0.6c0.2,0,0.5,0.3,0.7,0.5c0.1,0.1-0.1,0.4-0.2,0.5
		c-2.3,0.7-2.8,3.4-4.9,4.3c-0.2,0.1-0.5,0.2-0.7,0.2C102.7,5,102.6,4.8,102.5,4.6z"/>
	<path class="st6" d="M46.4-5.2c1.3,1.1,2.3,2,3.3,2.9c0.7,0.7,0.9,1.9,2.2,1.9c0.4,0,0.6,0.7,0.1,0.9c-2.2,0.7-2.7,3.3-4.8,4.2
		c-0.3,0.1-0.5,0.5-0.9,0.2C46,4.6,46.1,4.3,46.4,4c0.3-0.4,0.5-0.9,0.8-1.2c3.6-2.6,0.5-4.5-0.7-6.6c-0.1-0.2-0.3-0.5-0.3-0.8
		C46.2-4.7,46.3-4.9,46.4-5.2z"/>
	<path class="st7" d="M15,4.5c1.1-1.3,1.5-3.1,3.1-4c0.3-0.2,0.9-0.4,0.2-0.8c-1.6-0.8-2-2.4-3-3.7c-0.1-0.2-0.2-0.6-0.1-0.8
		c0.3-0.4,0.5,0,0.9,0.1c2,0.9,2.6,3.5,4.8,4.2c0.4,0.1,0.4,0.7,0,0.8C18.7,1,18.1,3.7,16,4.5C15.8,4.9,15.6,5,15.3,5
		C15.2,5,15.1,4.7,15,4.5z"/>
	<path class="st9" d="M58.8-4.9C60-3.7,61.6-3,62.5-1.4c0.3,0.5,0.5,1,1.3,0.9c0.2,0,0.5,0.3,0.6,0.6c0,0.1-0.2,0.5-0.3,0.5
		c-1.2-0.1-1.4,1-2,1.6c-1,1-2,1.9-3,2.8c-0.1,0.1-0.5,0.1-0.6,0c-0.1-0.2-0.2-0.6-0.1-0.7c1.1-1.2,1.4-3,3-3.7
		c0.4-0.2,0.7-0.5,0.1-0.8c-1.5-0.8-2-2.4-3-3.7C58.1-4.3,58.2-4.7,58.8-4.9z"/>
	<path class="st10" d="M95.6,4.5c1.2-1.2,1.5-3.1,3-3.9c0.7-0.4,0.7-0.6,0-1.1c-1.5-0.8-1.9-2.5-2.9-3.7c-0.1-0.1,0-0.5,0.1-0.6
		s0.5-0.1,0.6-0.1c1.1,1.2,2.7,1.8,3.4,3.3c0.3,0.5,0.5,1,1.3,0.9c0.2,0,0.5,0.2,0.6,0.4c0.1,0.1-0.1,0.5-0.2,0.6
		c-2.2,0.6-2.7,3.3-4.7,4.1C96.5,4.8,96.2,5,96,5.1C95.9,5.1,95.7,4.7,95.6,4.5z"/>
	<path class="st9" d="M40.6-4.9c1.1,1,2.2,2,3.2,3c0.6,0.6,0.8,1.5,1.9,1.6c0.5,0,0.7,0.8,0.2,0.9c-2.2,0.7-2.7,3.3-4.7,4.2
		c-0.3,0.1-0.5,0.7-0.9,0.3c-0.3-0.4-0.1-0.7,0.2-1c0.9-1.2,1.4-2.8,3-3.6c0.4-0.2,0.2-0.5-0.1-0.7c-1.5-0.8-2-2.5-3-3.7
		c-0.1-0.1-0.1-0.4-0.1-0.6C40.2-4.7,40.4-4.8,40.6-4.9z"/>
	<path class="st11" d="M28.3-4.9c1,0.9,2,1.8,3,2.7c0.7,0.7,0.8,1.9,2.2,1.9c0.4,0,0.6,0.7,0.2,0.9c-2.3,0.7-2.8,3.4-4.9,4.3
		c-0.3,0-0.6,0-0.8,0.1c0-0.2-0.2-0.6-0.1-0.7C29,3.1,29.3,1.2,31,0.5c0.4-0.2,0.4-0.5,0-0.7c-1.6-0.8-2-2.5-3-3.7
		c-0.1-0.2-0.2-0.5-0.1-0.7C27.9-4.7,28.1-4.8,28.3-4.9z"/>
	<path class="st8" d="M115.3-4.9c1.2,1.2,2.5,2.2,3.8,3.4c1.4,1.4,1.6,1.8,0,3.2c-1.2,1.1-2.4,2.1-3.5,3.2C115.5,5,115,5,115,5
		c-0.1-0.2-0.2-0.6-0.1-0.7c1-1.2,1.4-3,3-3.8c0.4-0.2,0.5-0.5,0-0.7c-1.6-0.8-2-2.4-3-3.7C114.7-4.3,114.7-4.7,115.3-4.9z"/>
	<path class="st8" d="M83.9-4.9c1.3,1.2,2.9,1.9,3.8,3.6c0.2,0.4,0.3,0.9,1,0.8c0.4,0,0.8,0.1,0.9,0.6c0,0.6-0.6,0.4-0.9,0.7
		c-1.5,1.1-2.3,3-4,3.9c-0.3,0.2-0.6,0.8-1,0.3c-0.4-0.4,0-0.7,0.2-1c0.9-1.3,1.4-2.8,3-3.5c0.4-0.2,0.2-0.5-0.1-0.6
		c-1.6-0.8-2.1-2.4-3-3.7C83.3-4.3,83.3-4.6,83.9-4.9z"/>
</g>
<g>
	<path class="st6" d="M83.1,24.5c-1.1,1.2-1.4,2.9-2.8,3.8c-1,0.6-0.8,0.9,0,1.4c1.3,0.8,1.6,2.4,2.6,3.5c0.1,0.1,0,0.5-0.2,0.7
		c-0.1,0.1-0.5,0-0.6-0.1c-1.2-1.2-2.9-2-3.6-3.6c-0.2-0.5-0.7-0.5-1.1-0.6c-0.5-0.1-0.9-0.7-0.3-0.9c2.2-0.9,2.8-3.4,4.9-4.3
		c0.2-0.1,0.5-0.2,0.7-0.2C82.8,24.1,82.9,24.3,83.1,24.5z"/>
	<path class="st8" d="M88.6,34c-1.1-1.1-2.7-1.8-3.5-3.3c-0.3-0.6-0.6-1.3-1.5-1.2c-0.2,0-0.4-0.3-0.5-0.5c0-0.1,0.1-0.4,0.2-0.5
		c2.2-0.7,2.8-3.3,4.8-4.2c0.3-0.1,0.6-0.3,0.8-0.2c0.4,0.2,0.3,0.6,0,0.9c-1,1.2-1.4,2.9-3,3.7c-0.4,0.2-0.4,0.5,0,0.7
		c1.6,0.7,2,2.4,3.1,3.7C89.2,33.4,89.2,33.8,88.6,34z"/>
	<path class="st8" d="M58,34c-1-0.9-2.1-1.8-3.1-2.8c-0.6-0.6-0.8-1.7-2-1.8c-0.4,0-0.5-0.7-0.2-0.9c2.2-0.8,2.9-3.4,4.9-4.3
		c0.2-0.1,0.5-0.1,0.8-0.1c0,0.3,0.1,0.6-0.1,0.8c-1,1.2-1.4,3-3,3.7c-0.4,0.2-0.4,0.5,0,0.7c1.6,0.8,2,2.5,3.1,3.7
		C58.7,33.4,58.7,33.8,58,34z"/>
	<path class="st6" d="M39.1,34c-1-0.8-2-1.6-2.9-2.4c-0.8-0.7-1-2.1-2.4-2.2c-0.4,0-0.4-0.7,0-0.9c2.1-0.8,2.7-3.3,4.7-4.2
		c0.3-0.2,0.6-0.6,1-0.2c0.3,0.3,0.1,0.6-0.2,0.9c-1,1.2-1.4,2.9-3,3.6c-0.4,0.2-0.2,0.5,0.1,0.7c1.6,0.8,2,2.5,3,3.7
		c0.1,0.1,0.1,0.4,0.1,0.6C39.5,33.8,39.3,33.9,39.1,34z"/>
	<path class="st6" d="M19.9,34c-1-0.9-2.1-1.8-3-2.7c-0.7-0.7-0.9-1.9-2.2-1.9c-0.4,0-0.5-0.7-0.1-0.9c2.2-0.7,2.7-3.3,4.8-4.2
		c0.3-0.1,0.6-0.6,1-0.3c0.4,0.4,0,0.7-0.2,1c-0.9,1.2-1.4,2.8-3,3.6c-0.4,0.2-0.2,0.5,0.2,0.7c1.6,0.8,2,2.5,3,3.7
		c0.1,0.1,0.1,0.4,0.1,0.6C20.3,33.8,20.1,33.9,19.9,34z"/>
	<path class="st6" d="M2,28.8c1.5-0.3,2-1.5,2.9-2.5c0.7-0.8,1.6-1.5,2.5-2.2c0.1-0.1,0.5-0.1,0.7,0c0.1,0.1,0.1,0.5,0,0.6
		c-1.1,1.2-1.4,3-3,3.7C4.8,28.7,4.3,29,5,29.3c1.6,0.8,2,2.5,3,3.7c0.1,0.2,0.1,0.5,0.1,0.8c-0.2,0-0.5,0.1-0.7,0
		c-2.1-1.1-2.9-3.6-5.1-4.4C2.2,29.3,2.1,29.1,2,28.8z"/>
	<path class="st12" d="M120.5,34c-1.2-1.2-2.5-2.4-3.8-3.5c-1.9-1.5-1-2,0.1-3.3c1.1-1.2,2.4-2,3.4-3.2c0.1-0.1,0.6-0.1,0.6,0
		c0.1,0.2,0.2,0.6,0,0.7c-1.1,1.2-1.4,3-3,3.7c-0.7,0.3-0.4,0.6,0,0.9c1.5,0.8,1.9,2.5,2.9,3.6c0.1,0.1,0.1,0.4,0.1,0.6
		C120.9,33.8,120.6,33.9,120.5,34z"/>
	<path class="st9" d="M70.8,28.8c2.1-0.3,2.4-2.5,3.9-3.5c0.5-0.3,0.9-0.7,1.4-1c0.2-0.1,0.5-0.1,0.8-0.1c0,0.3,0.1,0.6,0,0.7
		c-1.1,1.2-1.4,3-3,3.7c-0.4,0.2-0.6,0.5-0.1,0.7c1.5,0.8,2,2.5,3,3.7c0.1,0.2,0.1,0.5,0.1,0.8c-0.2,0-0.5,0.1-0.7,0
		c-2.1-1-2.8-3.6-5.1-4.4C71,29.3,70.9,29.1,70.8,28.8z"/>
	<path class="st9" d="M51.9,24.6c-1,1.2-1.4,2.9-2.9,3.8c-0.7,0.4-0.8,0.7,0,1.1c1.4,0.8,1.8,2.5,2.8,3.6c0.1,0.1,0,0.5-0.1,0.7
		c0,0.1-0.5,0.1-0.6-0.1c-1.2-1.1-2.4-2.3-3.6-3.3c-1.5-1.4-1.4-1.7,0-3c1.2-1.1,2.4-2.2,3.6-3.3C51.4,23.8,51.8,24,51.9,24.6z"/>
	<path class="st10" d="M108,29.1c0.1-1.1,1.4-0.4,1.7-1.2c0.6-1.7,2.3-2.5,3.5-3.7c0.1-0.1,0.5-0.2,0.6-0.1c0.1,0.2,0.2,0.6,0.1,0.7
		c-1,1.2-1.4,2.9-2.9,3.8c-0.3,0.2-0.9,0.4-0.2,0.8c1.6,0.8,2,2.4,3,3.7c0.1,0.2,0.1,0.5,0.1,0.8c-0.2,0-0.6,0.1-0.7,0
		c-1.2-1.1-2.9-1.9-3.5-3.5C109.4,29.3,108.2,29.9,108,29.1z"/>
	<path class="st9" d="M94.8,34c-1.3-1.2-2.6-2.3-3.8-3.5c-1.5-1.4-1.4-1.9,0-3.2c1.1-1.1,2.3-2.1,3.4-3.2c0.1-0.1,0.5,0,0.7,0
		c0,0.2,0.1,0.5,0,0.7c-0.3,0.6-0.6,1.3-1,1.6c-3.6,2.6-0.1,4.2,0.8,6.1c0.2,0.3,0.3,0.6,0.4,1C95.2,33.7,94.9,33.9,94.8,34z"/>
	<path class="st8" d="M45.3,34c-1.3-1.2-2.6-2.3-3.9-3.5c-1.4-1.3-1.4-1.7,0-3c1.2-1.1,2.4-2.2,3.6-3.3c0.1-0.1,0.5-0.1,0.6,0
		c0.1,0.2,0.2,0.6,0.1,0.7c-1,1.2-1.4,3-3,3.8c-0.5,0.2-0.5,0.5,0,0.7c1.6,0.8,2,2.4,3,3.7C45.9,33.4,45.8,33.8,45.3,34z"/>
	<path class="st4" d="M20.3,28.8c2-0.3,2.3-2.4,3.7-3.2c0.8-0.5,1.5-2,2.3-1.3c0.7,0.6-0.5,1.8-1,2.2c-2.2,1.8-1.9,3.3,0,5.1
		c0.5,0.4,1.8,1.4,1,2.2c-0.6,0.6-1.3-0.9-2.1-1.3c-1.5-0.7-1.6-2.9-3.5-3.2C20.5,29.3,20.5,29.1,20.3,28.8z"/>
	<path class="st10" d="M8.1,28.8c2.2-0.4,2.5-2.8,4.2-3.6c0.3-0.2,0.6-0.4,0.9-0.7c0.3-0.3,0.5-0.7,0.9-0.3c0.4,0.3,0.1,0.7-0.2,1
		c-0.9,1.2-1.4,2.9-3,3.6c-0.3,0.1-0.3,0.5,0,0.6c1.6,0.7,2.1,2.4,3.1,3.6c0.2,0.3,0.4,0.6,0,0.9c-0.1,0.1-0.5,0-0.7-0.1
		c-2.1-1-2.8-3.6-5-4.4C8.3,29.3,8.3,29.1,8.1,28.8z"/>
	<path class="st6" d="M101.7,28.8c2.1-0.3,2.4-2.7,4.1-3.5c0.7-0.3,1.2-1.7,2-1.2c0.9,0.7-0.5,1.3-0.8,2c-0.8,1.9-0.8,4.1,0.2,6
		c0.3,0.5,1.4,0.9,0.7,1.6c-0.8,0.8-1-0.6-1.6-0.8c-1.9-0.6-2.1-3.2-4.2-3.6C101.9,29.3,101.9,29.1,101.7,28.8z"/>
	<path class="st9" d="M70.9,24.5c-1.1,1.3-1.5,3.1-3,4c-0.7,0.4-0.7,0.7,0,1.1c1.4,0.8,1.9,2.5,2.9,3.7c0.1,0.1,0,0.5-0.1,0.6
		c-0.2,0.1-0.6,0.1-0.7,0c-1.2-1.2-2.9-2-3.6-3.6c-0.2-0.5-0.6-0.5-1-0.6c-0.2,0-0.5-0.2-0.6-0.4c-0.1-0.1,0.1-0.5,0.2-0.6
		c2.2-0.7,2.7-3.3,4.7-4.1c0.3-0.1,0.5-0.3,0.8-0.3C70.6,24,70.8,24.3,70.9,24.5z"/>
	<path class="st9" d="M32.9,34c-1.1-1.2-2.7-1.8-3.5-3.3c-0.3-0.6-0.6-1.3-1.5-1.2c-0.1,0-0.4-0.2-0.5-0.4c0-0.2,0.1-0.5,0.2-0.6
		c2.2-0.7,2.8-3.3,4.8-4.3c0.3-0.1,0.5-0.5,0.8-0.2c0.1,0.2,0.2,0.6,0.1,0.8c-1,1.2-1.4,3-3,3.7c-0.4,0.2-0.6,0.5-0.1,0.7
		c1.6,0.8,2,2.5,3.1,3.7C33.7,33.4,33.6,33.8,32.9,34z"/>
	<path class="st9" d="M100.8,34c-1.3-1.1-2.9-1.9-3.8-3.6c-0.2-0.4-0.4-0.9-1-0.8c-0.4,0-0.8,0-0.8-0.6s0.6-0.5,0.9-0.7
		c1.5-1.2,2.4-3.1,4.2-4c0.2-0.1,0.6-0.3,0.8-0.2c0.4,0.2,0.3,0.6,0,0.9c-1,1.2-1.4,2.9-3,3.7c-0.4,0.2-0.4,0.5,0,0.7
		c1.6,0.8,2,2.5,3.1,3.7C101.5,33.4,101.5,33.8,100.8,34z"/>
	<path class="st8" d="M64.8,24.5c-1.1,1.2-1.5,3.1-3,3.9c-0.7,0.4-0.8,0.6,0,1c1.5,0.8,1.9,2.5,2.9,3.6c0.1,0.1,0,0.5-0.1,0.7
		c-0.1,0.1-0.5,0.1-0.6,0c-1.1-1.1-2.4-2.1-3.5-3.3c-1.3-1.3-1.8-1.6-0.1-3.1c1.2-1,2.4-2.2,3.5-3.3C64.3,23.8,64.6,24,64.8,24.5z"
		/>
	<path class="st9" d="M121,28.8c2.1-0.3,2.3-2.6,3.9-3.5c0.5-0.3,0.9-0.6,1.3-1c0.3-0.3,0.5-0.4,0.8-0.1c0.1,0.1,0.1,0.6,0,0.7
		c-1.1,1.2-1.4,3-3.1,3.8c-0.4,0.2-0.4,0.5,0,0.7c1.5,0.8,2,2.4,3.1,3.7c0.1,0.2,0.1,0.5,0.1,0.8c-0.2,0-0.6,0.1-0.7,0
		c-1.3-1.1-2.9-1.9-3.6-3.6C122.4,29.2,121.1,30,121,28.8z"/>
</g>
</svg>
