<?xml version="1.0" encoding="utf-8"?>
<!-- Generator: Adobe Illustrator 28.0.0, SVG Export Plug-In . SVG Version: 6.00 Build 0)  -->
<svg version="1.1" xmlns="http://www.w3.org/2000/svg" xmlns:xlink="http://www.w3.org/1999/xlink" x="0px" y="0px"
	 viewBox="0 0 24 24" style="enable-background:new 0 0 24 24;" xml:space="preserve">
<style type="text/css">
	.st0{clip-path:url(#SVGID_00000044168166520795441690000000334750531877918134_);}
	.st1{fill:#010101;}
	.st2{fill:#FFFFFF;}
	.st3{fill:#069547;}
	.st4{fill:#EC3039;}
	.st5{fill:#E12E35;}
	.st6{fill:#D62A33;}
	.st7{fill:#D72B33;}
	.st8{fill:#CA2731;}
	.st9{fill:#E22D36;}
	.st10{fill:#C0272D;}
	.st11{fill:#BB252D;}
	.st12{fill:#911E22;}
	.st13{fill:#A21F27;}
	.st14{fill:#B2242B;}
	.st15{fill:#72171B;}
	.st16{fill:#9E2227;}
	.st17{fill:#491517;}
	.st18{fill:#825C3D;}
</style>
<g id="Layer_1">
	<g>
		<defs>
			<path id="SVGID_1_" d="M17.6,1h-2.8c-3.1,0-5.1,2.1-5.1,5.4v2.5H6.9c-0.2,0-0.4,0.2-0.4,0.4V13c0,0.2,0.2,0.4,0.4,0.4h2.8v9.1
				c0,0.2,0.2,0.4,0.4,0.4h3.6c0.2,0,0.4-0.2,0.4-0.4v-9.1h3.3c0.2,0,0.4-0.2,0.4-0.4V9.4c0-0.1,0-0.2-0.1-0.3S17.5,9,17.4,9h-3.3
				V6.8c0-1,0.2-1.5,1.5-1.5h1.9c0.2,0,0.4-0.2,0.4-0.4V1.5C18,1.2,17.8,1,17.6,1z"/>
		</defs>
		<clipPath id="SVGID_00000030485346142043815500000005990382265598360198_">
			<use xlink:href="#SVGID_1_"  style="overflow:visible;"/>
		</clipPath>
		<g style="clip-path:url(#SVGID_00000030485346142043815500000005990382265598360198_);">
			<path class="st1" d="M-22.2-1.7c51.8,0,103.6,0,155.4,0c0.5,0,0.6,0.1,0.6,0.3c0,4.2,0,8.3,0,12.5c-0.2,0.1-0.4,0.1-0.7,0.1
				s-0.6,0-0.9,0c-40.4,0-80.9,0-121.3,0c-0.4,0-0.9,0-1.3,0c-0.4-0.1-0.7-0.1-1.1-0.1c-1.3,0-2.6,0-4,0c-0.7,0-1.2-0.1-1.7-0.4
				c-6.7-3.4-13.3-6.7-20-9.9c-1.6-0.8-3.2-1.6-4.9-2.4C-22.2-1.5-22.3-1.5-22.2-1.7C-22.3-1.7-22.3-1.7-22.2-1.7z"/>
			<path class="st2" d="M3.2,6.8c3.5,0,7,0,10.5,0c25.8,0,51.5,0,77.3,0c12.1,0,24.1,0,36.2,0c0.2,0,0.5,0,0.7,0c0,3.5,0,6.9,0,10.4
				c-0.2,0-0.5,0-0.7,0c-25.1,0-50.1,0-75.2,0c-15.8,0-31.6,0-47.4,0c-2.3,0-4.6,0.1-7,0.1c-0.1-0.1,0.3-0.2,0.5-0.3
				c3.9-1.5,7.8-3.1,11.7-4.6c0.1-0.1,0.2-0.1,0.3-0.1c0.4-0.1,0.3-0.2,0-0.3c-0.5-0.2-0.9-0.4-1.3-0.5C5.2,10,1.9,8.5-1.7,7.2
				c-0.1,0-0.1-0.1-0.2-0.1C-2,7-2.2,7-2.1,6.9C-2,6.8-1.8,6.8-1.7,6.8C-0.1,6.8,1.6,6.8,3.2,6.8z"/>
			<path class="st3" d="M130,16.7c0,3.2,0,6.4,0,9.6c0,0.2-0.1,0.2-0.6,0.2c-51.9,0-103.7,0-155.6,0c0,0,0,0,0-0.1l0,0
				c0.1-0.1,0.3-0.1,0.4-0.2c3.7-1.4,7.3-2.8,11.1-4.2c2.9-1.1,5.8-2.2,8.7-3.3c1.7-0.7,3.3-1.3,5-1.9c0.3-0.1,0.6-0.2,1.1-0.2
				c0.1,0,0.2,0,0.4,0c2.7,0,5.4-0.1,8.2-0.1c40,0,80,0,120,0C129.1,16.6,129.6,16.6,130,16.7z"/>
			<path class="st4" d="M6,4.4c0.3,0.2,0.4,0.3,0.6,0.4c3.1,1.9,6.2,3.9,9.4,5.8c0.6,0.4,0.6,0.4,0,0.7c-3.2,2-6.5,4-9.7,6.1
				c-0.1,0.1-0.2,0.2-0.4,0.2c-1.3,0.8-2.5,1.6-3.8,2.4C-3.6,23.6-9.3,27.2-15,30.7c-0.1,0.1-0.1,0.1-0.2,0.1c-0.1-0.1,0-0.2,0-0.3
				c0-0.4,0-0.7,0-1c0-0.8,0-1.5,0-2.3c0-0.6,0-1.3,0-1.9c0-1.7,0-3.5,0-5.2c0-1.9,0-3.7,0-5.6c0-0.1,0-0.2,0-0.3c0-1.5,0-3,0-4.5
				c0.1-0.2,0-0.4,0-0.7c0-0.8,0-1.6,0-2.4c0-1.2,0-2.5,0-3.7c0-1.1,0-2.2,0-3.4c0-0.9,0-1.9,0-2.8c0-0.4,0-0.8,0-1.2s0-0.8,0-1.3
				s0-1.1,0-1.6c0-0.4,0-0.7,0-1c0.1-0.1-0.2-0.2,0.1-0.4c7,4.3,13.9,8.7,20.7,13"/>
			<path class="st5" d="M-22.5,18.4c0.2,0.1,0.1,0.2,0.1,0.2c0,1.4,0,2.8,0,4.2h-0.1C-22.5,21.3-22.5,19.9-22.5,18.4z"/>
			<path class="st6" d="M-22.5,22.8h0.1c0,1.3,0,2.6,0,3.9h-0.1C-22.5,25.4-22.5,24.1-22.5,22.8z"/>
			<path class="st7" d="M-22.4,10c0,0.9,0,1.9,0,2.8h-0.1c0-0.9,0-1.9,0-2.8H-22.4z"/>
			<path class="st8" d="M-22.4,10h-0.1c0-0.8,0-1.7,0-2.5h0.1C-22.4,8.4-22.4,9.2-22.4,10z"/>
			<path class="st9" d="M-22.5,12.8h0.1c0,0.7,0,1.3,0,2c0,0.1,0.1,0.2-0.1,0.2C-22.5,14.3-22.5,13.5-22.5,12.8z"/>
			<path class="st10" d="M-22.4,7.5h-0.1c0-0.7,0-1.4,0-2h0.1C-22.4,6.1-22.4,6.8-22.4,7.5z"/>
			<path class="st11" d="M-22.4,28.1c0,0.5,0,1.1,0,1.7h-0.1c0-0.5,0-1.1,0-1.7C-22.4,28.1-22.4,28.1-22.4,28.1z"/>
			<path class="st8" d="M-22.4,28.1h-0.1c0-0.5,0-0.9,0-1.4h0.1C-22.4,27.2-22.4,27.7-22.4,28.1z"/>
			<path class="st12" d="M-22.4,2.4c0,0.4,0,0.8,0,1.3h-0.1c0-0.4,0-0.8,0-1.3H-22.4z"/>
			<path class="st13" d="M-22.5,3.7h0.1c0,0.3,0,0.6,0,0.9h-0.1C-22.5,4.3-22.5,4-22.5,3.7z"/>
			<path class="st14" d="M-22.5,4.6h0.1c0,0.3,0,0.6,0,0.9h-0.1C-22.5,5.2-22.5,4.9-22.5,4.6z"/>
			<path class="st15" d="M-22.4,2.4h-0.1c0-0.2,0-0.5,0-0.8h0.1C-22.4,1.8-22.4,2.1-22.4,2.4z"/>
			<path class="st16" d="M-22.5,29.8h0.1c0,0.2,0,0.5,0,0.8h-0.1C-22.5,30.3-22.5,30.1-22.5,29.8z"/>
			<path class="st17" d="M-22.4,1.6h-0.1c0-0.1,0-0.2,0-0.2c0-0.1,0.2,0,0.2-0.1v0.1C-22.5,1.4-22.3,1.5-22.4,1.6z"/>
			<path class="st18" d="M-22.5,30.6h0.1c0,0.1,0,0.1,0,0.2v0.1C-22.6,30.7-22.4,30.7-22.5,30.6z"/>
		</g>
		<use xlink:href="#SVGID_1_"  style="overflow:visible;fill:none;stroke:#000000;stroke-width:0.25;stroke-miterlimit:10;"/>
	</g>
</g>
<g id="Layer_2">
</g>
</svg>
