<?xml version="1.0" encoding="utf-8"?>
<!-- Generator: Adobe Illustrator 28.0.0, SVG Export Plug-In . SVG Version: 6.00 Build 0)  -->
<svg version="1.1" id="Layer_1" xmlns="http://www.w3.org/2000/svg" xmlns:xlink="http://www.w3.org/1999/xlink" x="0px" y="0px"
	 viewBox="0 0 512 512" style="enable-background:new 0 0 512 512;" xml:space="preserve">
<style type="text/css">
	.st0{clip-path:url(#SVGID_00000073696828093032866990000011004124281799453607_);}
	.st1{fill:#009448;}
	.st2{fill:#FFFFFF;}
	.st3{fill:#EB2E39;}
	.st4{fill:#E02C34;}
	.st5{fill:#D42833;}
	.st6{fill:#D62A33;}
	.st7{fill:#C92630;}
	.st8{fill:#E12C36;}
	.st9{fill:#BF262D;}
	.st10{fill:#B9242D;}
	.st11{fill:#8F1D22;}
	.st12{fill:#A11E27;}
	.st13{fill:#B1232A;}
	.st14{fill:#72161B;}
	.st15{fill:#9D2127;}
	.st16{fill:#481416;}
	.st17{fill:#805B3D;}
	.st18{fill:#009448;stroke:#000000;stroke-miterlimit:10;}
</style>
<g transform="translate(0.000000,512.000000) scale(0.100000,-0.100000)">
	<path d="M95,4146c-67-29-105-106-91-181c9-47,59-102,104-115c26-8,785-10,2474-8l2437,3l27,21c53,39,69,71,69,134s-16,95-69,134
		l-27,21l-2447,2C553,4159,120,4157,95,4146z"/>
	<g>
		<defs>
			<path id="SVGID_1_" d="M95,2546c-67-29-105-106-91-181c9-47,59-102,104-115c26-8,785-10,2474-8l2437,3l27,21c53,39,69,71,69,134
				s-16,95-69,134l-27,21l-2447,2C553,2559,120,2557,95,2546z"/>
		</defs>
		<clipPath id="SVGID_00000131332110954980944040000004218584160274956977_">
			<use xlink:href="#SVGID_1_"  style="overflow:visible;"/>
		</clipPath>
		<g style="clip-path:url(#SVGID_00000131332110954980944040000004218584160274956977_);">
			<path class="st1" d="M5116.7,2057.6c0-221.1,0-442.3,0-663.4c0-12.5-3.3-16.7-19.8-16.7c-1715.3,0-3427.2,0-5142.5,0
				c0,0,0,0,0,4.2l0,0c3.3,4.2,9.9,8.3,13.2,12.5c122.3,96,241.3,191.9,366.8,287.9c95.8,75.1,191.7,150.2,287.5,225.3
				c56.2,45.9,109.1,87.6,165.2,133.5c9.9,8.3,19.8,16.7,36.4,16.7c3.3,0,6.6,0,13.2,0c89.2,0,178.5,4.2,271,4.2
				c1322,0,2644,0,3965.9,0C5087,2065.9,5103.5,2065.9,5116.7,2057.6z"/>
			<path d="M-35.7,3422c1712,0,3423.9,0,5135.9,0c16.5,0,19.8-4.2,19.8-16.7c0-221.1,0-442.3,0-663.4c-6.6-4.2-13.2-4.2-23.1-4.2
				c-9.9,0-19.8,0-29.7,0c-1335.2,0-2673.7,0-4008.9,0c-13.2,0-29.7,0-43,0c-13.2,4.2-23.1,4.2-36.4,4.2c-43,0-85.9,0-132.2,0
				c-23.1,0-39.7,4.2-56.2,16.7c-221.4,175.2-439.6,350.5-661,525.7c-52.9,41.7-105.8,87.6-161.9,125.2c-3.3,4.2-6.6,4.2-6.6,8.3
				C-39,3417.8-39,3417.8-35.7,3422z"/>
			<path class="st2" d="M998.7,2741.9c115.7,0,231.3,0,347,0c852.7,0,1702,0,2554.7,0c399.9,0,796.5,0,1196.4,0c6.6,0,16.5,0,23.1,0
				c0-229.5,0-454.8,0-684.3c-6.6,0-16.5,0-23.1,0c-829.5,0-1655.8,0-2485.3,0c-522.2,0-1044.4,0-1566.5,0c-76,0-152-4.2-231.3-4.2
				c-3.3,12.5,9.9,16.7,16.5,20.9c128.9,100.1,257.8,204.5,386.7,304.6c3.3,4.2,6.6,8.3,9.9,8.3c13.2,8.3,9.9,12.5,0,20.9
				c-16.5,12.5-29.7,25-43,33.4c-119,91.8-228,187.8-347,275.4c-3.3,0-3.3,4.2-6.6,4.2c-3.3,4.2-9.9,8.3-6.6,12.5
				c3.3,4.2,9.9,4.2,13.2,4.2C889.7,2741.9,945.8,2741.9,998.7,2741.9z"/>
			<path class="st3" d="M998.7,2741.9c-59.5,0-115.7,0-178.5,0c9.9-8.3,16.5-12.5,23.1-20.9c125.6-100.1,254.5-200.3,380.1-304.6
				c23.1-20.9,23.1-20.9,0-37.6c-132.2-104.3-264.4-208.6-393.3-312.9c-6.6-4.2-9.9-8.3-13.2-12.5c-49.6-41.7-102.5-79.3-152-121
				c-231.3-183.6-462.7-363-694-546.6c-3.3,0-6.6-4.2-6.6-4.2c-3.3,4.2,0,8.3-3.3,12.5c0,16.7,0,37.6,0,54.2c0,37.6,0,79.3,0,116.8
				c0,33.4,0,62.6,0,96c0,91.8,0,179.4,0,271.2c0,96,0,191.9,0,287.9c0,4.2,3.3,12.5-3.3,16.7c0,75.1,0,154.4,0,229.5
				c3.3,12.5,3.3,25,3.3,33.4c0,41.7,0,79.3,0,121c0,62.6,0,125.2,0,191.9c0,58.4,0,116.8,0,175.2c0,45.9,0,96,0,141.9
				c0,20.9,0,41.7,0,62.6c0,20.9,0,41.7,0,62.6c0,29.2,0,58.4,0,83.5c0,16.7,0,37.6,0,54.2c3.3,4.2-6.6,12.5,6.6,16.7
				c280.9-221.1,561.8-442.3,839.5-663.4c9.9-8.3,19.8-8.3,33-8.3C889.7,2741.9,942.5,2741.9,998.7,2741.9z"/>
			<path class="st4" d="M-45.6,2241.2c6.6-4.2,3.3-12.5,3.3-16.7c0-96,0-191.9,0-287.9h-3.3C-45.6,2036.7-45.6,2136.9-45.6,2241.2z"
				/>
			<path class="st5" d="M-45.6,1936.6h3.3c0-91.8,0-179.4,0-271.2h-3.3C-45.6,1753-45.6,1844.8-45.6,1936.6z"/>
			<path class="st6" d="M-42.3,2817c0-62.6,0-129.3,0-191.9h-3.3c0,62.6,0,129.4,0,191.9C-42.3,2821.2-42.3,2821.2-42.3,2817z"/>
			<path class="st7" d="M-42.3,2817h-3.3c0,58.4,0,116.8,0,175.2h3.3C-42.3,2933.8-42.3,2875.4-42.3,2817z"/>
			<path class="st8" d="M-45.6,2625.1h3.3c0-45.9,0-91.8,0-137.7c0-4.2,3.3-12.5-3.3-16.7C-45.6,2520.7-45.6,2575-45.6,2625.1z"/>
			<path class="st9" d="M-42.3,2992.2h-3.3c0,45.9,0,96,0,141.9h3.3C-42.3,3088.2-42.3,3042.3-42.3,2992.2z"/>
			<path class="st10" d="M-42.3,1569.4c0-37.6,0-79.3,0-116.8h-3.3c0,37.6,0,79.3,0,116.8C-42.3,1569.4-42.3,1569.4-42.3,1569.4z"/>
			<path class="st7" d="M-42.3,1569.4h-3.3c0,33.4,0,62.6,0,96h3.3C-42.3,1632-42.3,1598.6-42.3,1569.4z"/>
			<path class="st11" d="M-42.3,3346.9c0-29.2,0-58.4,0-87.6h-3.3c0,29.2,0,58.4,0,87.6C-42.3,3346.9-42.3,3346.9-42.3,3346.9z"/>
			<path class="st12" d="M-45.6,3259.3h3.3c0-20.9,0-41.7,0-62.6h-3.3C-45.6,3217.6-45.6,3238.4-45.6,3259.3z"/>
			<path class="st13" d="M-45.6,3196.7h3.3c0-20.9,0-41.7,0-62.6h-3.3C-45.6,3155-45.6,3175.8-45.6,3196.7z"/>
			<path class="st14" d="M-42.3,3346.9h-3.3c0,16.7,0,37.6,0,54.2h3.3C-42.3,3384.5-42.3,3363.6-42.3,3346.9z"/>
			<path class="st15" d="M-45.6,1448.4h3.3c0-16.7,0-37.6,0-54.2h-3.3C-45.6,1415-45.6,1431.7-45.6,1448.4z"/>
			<path class="st16" d="M-42.3,3401.2h-3.3c0,4.2,0,12.5,0,16.7c0,8.3,6.6,0,6.6,4.2v-4.2C-45.6,3413.7-39,3405.3-42.3,3401.2z"/>
			<path class="st17" d="M-45.6,1394.1h3.3c0-4.2,0-8.3,0-12.5v-4.2C-48.9,1385.8-42.3,1390-45.6,1394.1z"/>
		</g>
		<use xlink:href="#SVGID_1_"  style="overflow:visible;fill:none;stroke:#000000;stroke-miterlimit:10;"/>
	</g>
	<path class="st18" d="M95,946C28,917-10,840,4,765c9-47,59-102,104-115c26-8,785-10,2474-8l2437,3l27,21c53,39,69,71,69,134
		s-16,95-69,134l-27,21l-2447,2C553,959,120,957,95,946z"/>
</g>
</svg>
