<?xml version="1.0" encoding="utf-8"?>
<!-- Generator: Adobe Illustrator 28.0.0, SVG Export Plug-In . SVG Version: 6.00 Build 0)  -->
<svg version="1.1" id="Layer_1" xmlns="http://www.w3.org/2000/svg" xmlns:xlink="http://www.w3.org/1999/xlink" x="0px" y="0px"
	 viewBox="0 0 24 24" style="enable-background:new 0 0 24 24;" xml:space="preserve">
<style type="text/css">
	.st0{fill:#009545;}
</style>
<path class="st0" d="M18.5,4.1L13,2.1c-0.6-0.2-1.5-0.2-2.1,0L5.5,4.1C4.4,4.5,3.6,5.8,3.6,6.9V15c0,0.8,0.5,1.9,1.2,2.4l5.5,4.1
	c1,0.7,2.6,0.7,3.5,0l5.5-4.1c0.7-0.5,1.2-1.6,1.2-2.4V6.9C20.5,5.8,19.6,4.5,18.5,4.1z M15.5,9.7L11.2,14c-0.2,0.1-0.3,0.2-0.5,0.2
	c-0.2,0-0.4-0.1-0.5-0.2l-1.6-1.6c-0.3-0.3-0.3-0.8,0-1.1c0.3-0.3,0.8-0.3,1.1,0l1.1,1.1l3.8-3.8c0.3-0.3,0.8-0.3,1.1,0
	S15.8,9.4,15.5,9.7z"/>
</svg>
