<?xml version="1.0" encoding="utf-8"?>
<!-- Generator: Adobe Illustrator 28.0.0, SVG Export Plug-In . SVG Version: 6.00 Build 0)  -->
<svg version="1.1" id="Layer_1" xmlns="http://www.w3.org/2000/svg" xmlns:xlink="http://www.w3.org/1999/xlink" x="0px" y="0px"
	 viewBox="0 0 24 24" style="enable-background:new 0 0 24 24;" xml:space="preserve">
<style type="text/css">
	.st0{fill-rule:evenodd;clip-rule:evenodd;fill:#009545;}
	.st1{fill-rule:evenodd;clip-rule:evenodd;fill:#CE2828;}
	.st2{fill-rule:evenodd;clip-rule:evenodd;}
</style>
<path class="st0" d="M7.7,13.5c-0.6,0.1-1.5,0.2-2.1,0.4C5,14.1,4,14.4,4,14.5c0,0.1,2.3,7.3,2.4,7.4c0,0,0.3,0,0.5,0
	c0.4-0.1,1-0.1,5.2-0.1l4.8,0l0.5-0.1c0.5-0.2,1.1-0.4,1.5-0.7c0.2-0.1,1.3-1.1,2.5-2.1c1.6-1.4,2.3-2,2.4-2.1
	c0.4-0.6,0.4-1.2,0-1.7c-0.1-0.1-0.3-0.3-0.4-0.3c-0.2-0.1-0.7-0.1-0.9,0c-0.1,0-0.8,0.5-1.7,1c-1.7,1.1-2.2,1.4-2.9,1.6
	c-1.1,0.4-1.5,0.4-5.4,0.4l-3.3,0v-0.7v-0.7l2.4,0c2.3,0,2.4,0,2.6-0.1c0.3-0.1,0.5-0.3,0.6-0.6c0.3-0.5,0.1-1.2-0.3-1.6
	c-0.4-0.3-0.3-0.3-3.5-0.3C9.5,13.5,8,13.5,7.7,13.5z"/>
<path class="st1" d="M9.2,0c-1,0.1-1.6,0.4-2.2,1C5.6,2.5,5.5,4.9,6.9,6.8C7,6.9,7.3,7.3,7.6,7.7c1,1.1,2.4,2.2,4.5,3.7l0.6,0.4
	l0.7-0.5c2.1-1.5,3.4-2.7,4.4-3.6c0.7-0.8,1-1.2,1.3-1.8c0.3-0.7,0.4-1.2,0.4-2c0-0.8-0.1-1.1-0.4-1.8c-0.2-0.4-0.3-0.6-0.7-0.9
	c-0.5-0.5-0.9-0.8-1.4-1c-0.9-0.3-1.8-0.3-2.6,0.1c-0.5,0.2-0.7,0.4-1.2,0.9l-0.4,0.4l-0.5-0.5c-0.5-0.5-1-0.8-1.5-1
	C10.2,0,9.6,0,9.2,0z"/>
<path class="st2" d="M1.3,15.7L0,16.3l0,3.9L0,24l0.5-0.2c0.3-0.1,1.4-0.5,2.5-0.9c1.1-0.4,2-0.7,2-0.7c0,0-2.3-7.2-2.3-7.2
	C2.7,15,2.1,15.3,1.3,15.7z"/>
</svg>
