<?xml version="1.0" encoding="utf-8"?>
<!-- Generator: Adobe Illustrator 28.0.0, SVG Export Plug-In . SVG Version: 6.00 Build 0)  -->
<svg version="1.1" id="Layer_1" xmlns="http://www.w3.org/2000/svg" xmlns:xlink="http://www.w3.org/1999/xlink" x="0px" y="0px"
	 viewBox="0 0 24 24" style="enable-background:new 0 0 24 24;" xml:space="preserve">
<style type="text/css">
	.st0{fill:#009545;}
	.st1{fill:#CE2828;}
	.st2{fill:#FFFFFF;}
</style>
<path class="st0" d="M21.5,15.5c0.3,0,0.5,0.2,0.5,0.5v1c0,1.7-1.3,3-3,3c0-1.6-1.4-3-3-3s-3,1.4-3,3h-2c0-1.6-1.4-3-3-3s-3,1.4-3,3
	c-1.7,0-3-1.3-3-3v-2c0-0.6,0.5-1,1-1h9.5c1.4,0,2.5-1.1,2.5-2.5V6c0-0.6,0.4-1,1-1h0.8c0.7,0,1.4,0.4,1.7,1l0.6,1.1
	c0.1,0.2,0,0.4-0.2,0.4c-1.4,0-2.5,1.1-2.5,2.5v3c0,1.4,1.1,2.5,2.5,2.5H21.5z"/>
<path d="M8,22c1.1,0,2-0.9,2-2s-0.9-2-2-2s-2,0.9-2,2S6.9,22,8,22z"/>
<path d="M16,22c1.1,0,2-0.9,2-2s-0.9-2-2-2s-2,0.9-2,2S14.9,22,16,22z"/>
<path class="st1" d="M22,12.5V14h-3c-0.5,0-1-0.4-1-1v-3c0-0.6,0.5-1,1-1h1.3l1.4,2.5C21.9,11.8,22,12.2,22,12.5z"/>
<path class="st0" d="M13.1,2H5.7C3.9,2,2.4,3.3,2.1,5h4.4c0.4,0,0.7,0.3,0.7,0.7S6.8,6.3,6.4,6.3H2v1.4h2.6C5,7.7,5.3,8,5.3,8.4
	S5,9.1,4.6,9.1H2v1.4h0.8c0.4,0,0.7,0.3,0.7,0.7s-0.3,0.7-0.7,0.7H2v0.2c0,0.6,0.5,1,1,1h9.1c1,0,1.9-0.8,1.9-1.9V2.9
	C14,2.4,13.6,2,13.1,2z"/>
<path class="st2" d="M2.1,5H1.9h-1C0.6,5,0.2,5.3,0.2,5.7c0,0.4,0.3,0.7,0.7,0.7h0.9H2V5.7C2,5.5,2,5.2,2.1,5z"/>
<path class="st2" d="M1.9,7.7H0.9C0.6,7.7,0.2,8,0.2,8.4s0.3,0.7,0.7,0.7h0.9H2V7.7H1.9z"/>
<path class="st2" d="M1.9,10.5H0.9c-0.4,0-0.7,0.3-0.7,0.7s0.3,0.7,0.7,0.7h0.9H2v-1.4H1.9z"/>
</svg>
