<?xml version="1.0" encoding="utf-8"?>
<!-- Generator: Adobe Illustrator 28.0.0, SVG Export Plug-In . SVG Version: 6.00 Build 0)  -->
<svg version="1.1" id="Layer_1" xmlns="http://www.w3.org/2000/svg" xmlns:xlink="http://www.w3.org/1999/xlink" x="0px" y="0px"
	 viewBox="0 0 24 24" style="enable-background:new 0 0 24 24;" xml:space="preserve">
<style type="text/css">
	.st0{clip-path:url(#SVGID_00000042710944638888577230000014315097043912474510_);}
	.st1{fill:#FEFEFE;}
	.st2{fill:#009545;}
	.st3{fill:#EC2E38;}
	.st4{fill:#E12C35;}
	.st5{fill:#D62933;}
	.st6{fill:#D72A33;}
	.st7{fill:#CA2730;}
	.st8{fill:#E32C36;}
	.st9{fill:#C0252D;}
	.st10{fill:#BA242C;}
	.st11{fill:#901C22;}
	.st12{fill:#A11F26;}
	.st13{fill:#B2232A;}
	.st14{fill:#72161B;}
	.st15{fill:#9D2026;}
	.st16{fill:#4B0F12;}
	.st17{fill:#815B3D;}
</style>
<g>
	<defs>
		<path id="SVGID_1_" d="M2,12c0-4.2,0-6.3,1.1-7.7c0.3-0.5,0.7-0.9,1.2-1.2C5.7,2,7.8,2,12,2c4.2,0,6.3,0,7.7,1.1
			c0.5,0.3,0.9,0.7,1.2,1.2C22,5.7,22,7.8,22,12c0,4.2,0,6.3-1.1,7.7c-0.3,0.5-0.7,0.9-1.2,1.2C18.3,22,16.2,22,12,22
			c-4.2,0-6.3,0-7.7-1.1c-0.5-0.3-0.9-0.7-1.2-1.2C2,18.3,2,16.2,2,12z M12,6.7c-2.9,0-5.3,2.4-5.3,5.3c0,2.9,2.4,5.3,5.3,5.3
			c2.9,0,5.3-2.4,5.3-5.3C17.3,9.1,14.9,6.7,12,6.7z M12,15.3c-1.8,0-3.3-1.5-3.3-3.3c0-1.8,1.5-3.3,3.3-3.3c1.8,0,3.3,1.5,3.3,3.3
			C15.3,13.8,13.8,15.3,12,15.3z M18.4,6.3c0,0.4-0.3,0.7-0.7,0.7C17.3,7,17,6.7,17,6.3c0-0.4,0.3-0.7,0.7-0.7
			C18.1,5.6,18.4,5.9,18.4,6.3z"/>
	</defs>
	<clipPath id="SVGID_00000016774318817734731140000015437236015471074963_">
		<use xlink:href="#SVGID_1_"  style="overflow:visible;"/>
	</clipPath>
	<g style="clip-path:url(#SVGID_00000016774318817734731140000015437236015471074963_);">
		<path d="M-27.2-1.3c51.8,0,103.6,0,155.4,0c0.5,0,0.6,0.1,0.6,0.3c0,4.2,0,8.3,0,12.5c-0.2,0.1-0.4,0.1-0.7,0.1s-0.6,0-0.9,0
			c-40.4,0-80.9,0-121.3,0c-0.4,0-0.9,0-1.3,0c-0.4-0.1-0.7-0.1-1.1-0.1c-1.3,0-2.6,0-4,0c-0.7,0-1.2-0.1-1.7-0.4
			c-6.7-3.4-13.3-6.7-20-9.9c-1.6-0.8-3.2-1.6-4.9-2.4C-27.2-1.1-27.3-1.1-27.2-1.3C-27.3-1.3-27.3-1.3-27.2-1.3z"/>
		<path class="st1" d="M-1.8,7.2c3.5,0,7,0,10.5,0c25.8,0,51.5,0,77.3,0c12.1,0,24.1,0,36.2,0c0.2,0,0.5,0,0.7,0c0,3.5,0,6.9,0,10.4
			c-0.2,0-0.5,0-0.7,0c-25.1,0-50.1,0-75.2,0c-15.8,0-31.6,0-47.4,0c-2.3,0-4.6,0.1-7,0.1c-0.1-0.1,0.3-0.2,0.5-0.3
			c3.9-1.5,7.8-3.1,11.7-4.6c0.1-0.1,0.2-0.1,0.3-0.1c0.4-0.1,0.3-0.2,0-0.3c-0.5-0.2-0.9-0.4-1.3-0.5C0.2,10.4-3.1,8.9-6.7,7.6
			c-0.1,0-0.1-0.1-0.2-0.1C-7,7.4-7.2,7.4-7.1,7.3C-7,7.2-6.8,7.2-6.7,7.2C-5.1,7.2-3.4,7.2-1.8,7.2z"/>
		<path class="st2" d="M125,17.1c0,3.2,0,6.4,0,9.6c0,0.2-0.1,0.2-0.6,0.2c-51.9,0-103.7,0-155.6,0c0,0,0,0,0-0.1l0,0
			c0.1-0.1,0.3-0.1,0.4-0.2c3.7-1.4,7.3-2.8,11.1-4.2c2.9-1.1,5.8-2.2,8.7-3.3c1.7-0.7,3.3-1.3,5-1.9c0.3-0.1,0.6-0.2,1.1-0.2
			c0.1,0,0.2,0,0.4,0c2.7,0,5.4-0.1,8.2-0.1c40,0,80,0,120,0C124.1,17,124.6,17,125,17.1z"/>
		<path class="st3" d="M1,4.8C1.3,5,1.4,5.1,1.6,5.2C4.7,7.1,7.8,9.1,11,11c0.6,0.4,0.6,0.4,0,0.7c-3.2,2-6.5,4-9.7,6.1
			c-0.1,0.1-0.2,0.2-0.4,0.2c-1.3,0.8-2.5,1.6-3.8,2.4C-8.6,24-14.3,27.6-20,31.1c-0.1,0.1-0.1,0.1-0.2,0.1c-0.1-0.1,0-0.2,0-0.3
			c0-0.4,0-0.7,0-1c0-0.8,0-1.5,0-2.3c0-0.6,0-1.3,0-1.9c0-1.7,0-3.5,0-5.2c0-1.9,0-3.7,0-5.6c0-0.1,0-0.2,0-0.3c0-1.5,0-3,0-4.5
			c0.1-0.2,0-0.4,0-0.7c0-0.8,0-1.6,0-2.4c0-1.2,0-2.5,0-3.7c0-1.1,0-2.2,0-3.4c0-0.9,0-1.9,0-2.8c0-0.4,0-0.8,0-1.2s0-0.8,0-1.3
			c0-0.5,0-1.1,0-1.6c0-0.4,0-0.7,0-1c0.1-0.1-0.2-0.2,0.1-0.4c7,4.3,13.9,8.7,20.7,13"/>
		<path class="st4" d="M-27.5,18.8c0.2,0.1,0.1,0.2,0.1,0.2c0,1.4,0,2.8,0,4.2h-0.1C-27.5,21.7-27.5,20.3-27.5,18.8z"/>
		<path class="st5" d="M-27.5,23.2h0.1c0,1.3,0,2.6,0,3.9h-0.1C-27.5,25.8-27.5,24.5-27.5,23.2z"/>
		<path class="st6" d="M-27.4,10.4c0,0.9,0,1.9,0,2.8h-0.1c0-0.9,0-1.9,0-2.8C-27.5,10.4-27.4,10.4-27.4,10.4z"/>
		<path class="st7" d="M-27.4,10.4h-0.1c0-0.8,0-1.7,0-2.5h0.1C-27.4,8.8-27.4,9.6-27.4,10.4z"/>
		<path class="st8" d="M-27.5,13.2h0.1c0,0.7,0,1.3,0,2c0,0.1,0.1,0.2-0.1,0.2C-27.5,14.7-27.5,13.9-27.5,13.2z"/>
		<path class="st9" d="M-27.4,7.9h-0.1c0-0.7,0-1.4,0-2h0.1C-27.4,6.5-27.4,7.2-27.4,7.9z"/>
		<path class="st10" d="M-27.4,28.5c0,0.5,0,1.1,0,1.7h-0.1c0-0.5,0-1.1,0-1.7C-27.4,28.5-27.4,28.5-27.4,28.5z"/>
		<path class="st7" d="M-27.4,28.5h-0.1c0-0.5,0-0.9,0-1.4h0.1C-27.4,27.6-27.4,28.1-27.4,28.5z"/>
		<path class="st11" d="M-27.4,2.8c0,0.4,0,0.8,0,1.3h-0.1c0-0.4,0-0.8,0-1.3H-27.4z"/>
		<path class="st12" d="M-27.5,4.1h0.1c0,0.3,0,0.6,0,0.9h-0.1C-27.5,4.7-27.5,4.4-27.5,4.1z"/>
		<path class="st13" d="M-27.5,5h0.1c0,0.3,0,0.6,0,0.9h-0.1C-27.5,5.6-27.5,5.3-27.5,5z"/>
		<path class="st14" d="M-27.4,2.8h-0.1c0-0.2,0-0.5,0-0.8h0.1C-27.4,2.2-27.4,2.5-27.4,2.8z"/>
		<path class="st15" d="M-27.5,30.2h0.1c0,0.2,0,0.5,0,0.8h-0.1C-27.5,30.7-27.5,30.5-27.5,30.2z"/>
		<path class="st16" d="M-27.4,2h-0.1c0-0.1,0-0.2,0-0.2c0-0.1,0.2,0,0.2-0.1v0.1C-27.5,1.8-27.3,1.9-27.4,2z"/>
		<path class="st17" d="M-27.5,31h0.1c0,0.1,0,0.1,0,0.2v0.1C-27.6,31.1-27.4,31.1-27.5,31z"/>
	</g>
	
		<use xlink:href="#SVGID_1_"  style="overflow:visible;fill-rule:evenodd;clip-rule:evenodd;fill:none;stroke:#000000;stroke-width:0.25;stroke-miterlimit:10;"/>
</g>
</svg>
