<?xml version="1.0" encoding="utf-8"?>
<!-- Generator: Adobe Illustrator 28.1.0, SVG Export Plug-In . SVG Version: 6.00 Build 0)  -->
<svg version="1.1" id="Layer_1" xmlns="http://www.w3.org/2000/svg" xmlns:xlink="http://www.w3.org/1999/xlink" x="0px" y="0px"
	 viewBox="0 0 1280 1280" style="enable-background:new 0 0 1280 1280;" xml:space="preserve">
<style type="text/css">
	.st0{clip-path:url(#SVGID_00000092453258181889674330000005316989653665594806_);}
	.st1{fill:#010101;}
	.st2{fill:#FFFFFF;}
	.st3{fill:#069547;}
	.st4{fill:#EC3039;}
	.st5{fill:#E12E35;}
	.st6{fill:#D62A33;}
	.st7{fill:#D72B33;}
	.st8{fill:#CA2731;}
	.st9{fill:#E22D36;}
	.st10{fill:#C0272D;}
	.st11{fill:#BB252D;}
	.st12{fill:#911E22;}
	.st13{fill:#A21F27;}
	.st14{fill:#B2242B;}
	.st15{fill:#72171B;}
	.st16{fill:#9E2227;}
	.st17{fill:#491517;}
	.st18{fill:#825C3D;}
	.st19{fill:#FAFCFC;}
	.st20{clip-path:url(#SVGID_00000097494073846778203050000002460940985155158191_);}
	.st21{clip-path:url(#SVGID_00000131368454693615276370000017796245326734017442_);}
	.st22{fill:#838584;}
</style>
<g>
	<defs>
		<path id="SVGID_1_" d="M0,0c422.4,0,844.8,0,1280,0c0,422.4,0,844.8,0,1280c-422.4,0-844.8,0-1280,0C0,857.6,0,435.2,0,0z"/>
	</defs>
	<clipPath id="SVGID_00000090280162605060545300000002068992596060714381_">
		<use xlink:href="#SVGID_1_"  style="overflow:visible;"/>
	</clipPath>
	<g style="clip-path:url(#SVGID_00000090280162605060545300000002068992596060714381_);">
		<path class="st1" d="M-1052.5-34.7c2634.5,0,5269.1,0,7903.6,0c25.4,0,30.5,5.1,30.5,15.3c0,213.6,0,422.1,0,635.7
			c-10.2,5.1-20.3,5.1-35.6,5.1c-15.3,0-30.5,0-45.8,0c-2054.7,0-4114.6,0-6169.3,0c-20.3,0-45.8,0-66.1,0
			c-20.3-5.1-35.6-5.1-55.9-5.1c-66.1,0-132.2,0-203.4,0c-35.6,0-61-5.1-86.5-20.3C-121.7,423-457.4,255.2-798.2,92.4
			c-81.4-40.7-162.8-81.4-249.2-122.1C-1052.5-24.6-1057.6-24.6-1052.5-34.7C-1057.6-34.7-1057.6-34.7-1052.5-34.7z"/>
		<path class="st2" d="M239.4,397.6c178,0,356,0,534,0c1312.2,0,2619.3,0,3931.5,0c615.4,0,1225.7,0,1841.1,0c10.2,0,25.4,0,35.6,0
			c0,178,0,350.9,0,528.9c-10.2,0-25.4,0-35.6,0c-1276.6,0-2548.1,0-3824.6,0c-803.6,0-1607.2,0-2410.8,0c-117,0-234,5.1-356,5.1
			c-5.1-5.1,15.3-10.2,25.4-15.3c198.4-76.3,396.7-157.7,595.1-234c5.1-5.1,10.2-5.1,15.3-5.1c20.3-5.1,15.3-10.2,0-15.3
			c-25.4-10.2-45.8-20.3-66.1-25.4C341.1,560.3,173.3,484-9.8,417.9c-5.1,0-5.1-5.1-10.2-5.1c-5.1-5.1-15.3-5.1-10.2-10.2
			c5.1-5.1,15.3-5.1,20.3-5.1C71.5,397.6,158,397.6,239.4,397.6z"/>
		<path class="st3" d="M6688.4,901.1c0,162.8,0,325.5,0,488.3c0,10.2-5.1,10.2-30.5,10.2c-2639.6,0-5274.2,0-7913.8,0c0,0,0,0,0-5.1
			l0,0c5.1-5.1,15.3-5.1,20.3-10.2c188.2-71.2,371.3-142.4,564.5-213.6c147.5-55.9,295-111.9,442.5-167.8
			c86.5-35.6,167.8-66.1,254.3-96.6C41,901.1,56.3,896,81.7,896c5.1,0,10.2,0,20.3,0c137.3,0,274.6-5.1,417-5.1
			c2034.4,0,4068.8,0,6103.2,0C6642.6,896,6668,896,6688.4,901.1z"/>
		<path class="st4" d="M381.8,275.5c15.3,10.2,20.3,15.3,30.5,20.3c157.7,96.6,315.3,198.4,478.1,295c30.5,20.3,30.5,20.3,0,35.6
			C727.6,728.2,559.8,829.9,397,936.7c-5.1,5.1-10.2,10.2-20.3,10.2c-66.1,40.7-127.1,81.4-193.3,122.1
			c-289.9,183.1-579.8,366.2-869.7,544.2c-5.1,5.1-5.1,5.1-10.2,5.1c-5.1-5.1,0-10.2,0-15.3c0-20.3,0-35.6,0-50.9
			c0-40.7,0-76.3,0-117c0-30.5,0-66.1,0-96.6c0-86.5,0-178,0-264.5c0-96.6,0-188.2,0-284.8c0-5.1,0-10.2,0-15.3
			c0-76.3,0-152.6,0-228.9c5.1-10.2,0-20.3,0-35.6c0-40.7,0-81.4,0-122.1c0-61,0-127.1,0-188.2c0-55.9,0-111.9,0-172.9
			c0-45.8,0-96.6,0-142.4c0-20.3,0-40.7,0-61s0-40.7,0-66.1s0-55.9,0-81.4c0-20.3,0-35.6,0-50.9c5.1-5.1-10.2-10.2,5.1-20.3
			c356,218.7,706.9,442.5,1052.8,661.2"/>
		<path class="st5" d="M-1067.7,987.6c10.2,5.1,5.1,10.2,5.1,10.2c0,71.2,0,142.4,0,213.6h-5.1
			C-1067.7,1135.1-1067.7,1063.8-1067.7,987.6z"/>
		<path class="st6" d="M-1067.7,1211.3h5.1c0,66.1,0,132.2,0,198.4h-5.1C-1067.7,1343.6-1067.7,1277.5-1067.7,1211.3z"/>
		<path class="st7" d="M-1062.6,560.3c0,45.8,0,96.6,0,142.4h-5.1c0-45.8,0-96.6,0-142.4H-1062.6z"/>
		<path class="st8" d="M-1062.6,560.3h-5.1c0-40.7,0-86.5,0-127.1h5.1C-1062.6,479-1062.6,519.6-1062.6,560.3z"/>
		<path class="st9" d="M-1067.7,702.7h5.1c0,35.6,0,66.1,0,101.7c0,5.1,5.1,10.2-5.1,10.2C-1067.7,779-1067.7,738.3-1067.7,702.7z"
			/>
		<path class="st10" d="M-1062.6,433.2h-5.1c0-35.6,0-71.2,0-101.7h5.1C-1062.6,362-1062.6,397.6-1062.6,433.2z"/>
		<path class="st11" d="M-1062.6,1480.9c0,25.4,0,55.9,0,86.5h-5.1c0-25.4,0-55.9,0-86.5
			C-1062.6,1480.9-1062.6,1480.9-1062.6,1480.9z"/>
		<path class="st8" d="M-1062.6,1480.9h-5.1c0-25.4,0-45.8,0-71.2h5.1C-1062.6,1435.1-1062.6,1460.6-1062.6,1480.9z"/>
		<path class="st12" d="M-1062.6,173.8c0,20.3,0,40.7,0,66.1h-5.1c0-20.3,0-40.7,0-66.1H-1062.6z"/>
		<path class="st13" d="M-1067.7,239.9h5.1c0,15.3,0,30.5,0,45.8h-5.1C-1067.7,270.4-1067.7,255.2-1067.7,239.9z"/>
		<path class="st14" d="M-1067.7,285.7h5.1c0,15.3,0,30.5,0,45.8h-5.1C-1067.7,316.2-1067.7,301-1067.7,285.7z"/>
		<path class="st15" d="M-1062.6,173.8h-5.1c0-10.2,0-25.4,0-40.7h5.1C-1062.6,143.3-1062.6,158.5-1062.6,173.8z"/>
		<path class="st16" d="M-1067.7,1567.4h5.1c0,10.2,0,25.4,0,40.7h-5.1C-1067.7,1592.8-1067.7,1582.6-1067.7,1567.4z"/>
		<path class="st17" d="M-1062.6,133.1h-5.1c0-5.1,0-10.2,0-10.2c0-5.1,10.2,0,10.2-5.1v5.1C-1067.7,122.9-1057.6,128-1062.6,133.1z
			"/>
		<path class="st18" d="M-1067.7,1608h5.1c0,5.1,0,5.1,0,10.2v5.1C-1072.8,1613.1-1062.6,1613.1-1067.7,1608z"/>
	</g>
</g>
<path class="st19" d="M0,0c422.4,0,844.8,0,1280,0c0,422.4,0,844.8,0,1280c-422.4,0-844.8,0-1280,0C0,857.6,0,435.2,0,0z M606,124
	c-2.8,0-5.6-0.1-8.5-0.2c-3.7,0.2-7,0.8-10.7,1.6c-4.4,0.8-8.8,1.3-13.3,1.8c-16.8,2-33.1,5-49.6,8.7c-0.7,0.1-1.3,0.3-2,0.4
	c-11.1,2.5-22,5.5-32.9,8.9c-1.2,0.4-1.2,0.4-2.4,0.7c-11.7,3.6-23.3,7.4-34.7,11.9c-0.9,0.4-1.8,0.7-2.7,1.1
	c-15.8,6.3-31.1,13.4-46.3,20.9c-0.8,0.4-1.5,0.8-2.3,1.2c-20.5,10.3-40,22.6-58.7,35.8c-0.8,0.5-1.5,1.1-2.3,1.6
	c-14.2,10-27.8,20.7-40.6,32.4c-2.1,1.9-4.3,3.8-6.5,5.7c-2.1,1.8-4.1,3.7-6.1,5.6c-2.4,2.4-4.9,4.7-7.5,7c-6.1,5.4-11.7,11-17,17.2
	c-2.2,2.5-4.5,5-6.8,7.4c-14.1,15-26.3,31.4-38.3,48c-0.6,0.8-1.2,1.6-1.8,2.5c-5.6,7.8-10.7,16-15.7,24.2c-0.9,1.4-1.8,2.8-2.6,4.2
	c-28.1,44.4-47.9,95-59.8,146.1c-0.4,1.7-0.4,1.7-0.8,3.5c-4.9,21.3-8.3,42.8-10.8,64.6c-0.4,2.9-0.4,2.9-0.9,5.1
	c-0.5,2.2-0.5,4.2-0.4,6.4c0.1,2.9-0.1,4.6-1,7.4c-0.1,1.4-0.1,2.9-0.1,4.3c0,1.3,0,1.3,0,2.7c0,1,0,1.9,0,2.9c0,1,0,2,0,3
	c0,3.2,0,6.5,0,9.8c0,1.1,0,2.2,0,3.3c0,14,0.1,28,0.5,42c0,1.9,0,1.9,0.1,3.9c0.2,6,0.7,11.7,2,17.6c0.8,4,1.3,8.1,1.8,12.2
	c2.1,16.6,5.2,33,8.7,49.3c0.3,1.6,0.3,1.6,0.7,3.3c5,23.2,12.6,45.7,21.3,67.7c0.6,1.5,1.1,2.9,1.6,4.4c5.8,15.3,13,30,20.4,44.6
	c0.6,1.3,0.6,1.3,1.3,2.6c10.4,20.7,23.3,40.1,36.2,59.2c1.2,1.7,2.3,3.5,3.5,5.2c0.7,0,1.3,0,2,0c0.2,0.7,0.5,1.4,0.8,2.2
	c1.4,3.1,3.1,5.3,5.2,7.9c2.1,2.6,4.1,5.1,6,7.9c0.7,0,1.3,0,2,0c0.3,1.3,0.7,2.6,1,4c0.7,0,1.3,0,2,0c0.3,0.6,0.5,1.2,0.8,1.8
	c1.2,2.3,2.5,4.3,4.2,6.2c0.7,0,1.3,0,2,0c0.2,0.7,0.4,1.4,0.7,2.2c1.2,2.7,2.5,4.2,4.7,6.2c3,2.9,5.7,6.2,8.4,9.4
	c2,2.3,2,2.3,4.3,3.3c2.4,1.2,2.7,2.5,3.9,5c1.5,1.6,3,3.2,4.5,4.8c1.2,1.2,1.2,1.2,2.4,2.4c1.9,2,1.9,2,4.1,1.8
	c0.2,0.6,0.5,1.1,0.7,1.7c2.7,4.7,7,8.2,11.3,11.3c0.7,0,1.3,0,2,0c0.2,0.6,0.5,1.2,0.7,1.8c1.5,2.7,3.2,4,5.6,5.8
	c0.8,0.6,1.5,1.2,2.3,1.8c2.1,1.4,4,2.5,6.3,3.6c0,0.7,0,1.3,0,2c0.8,0.3,1.6,0.5,2.4,0.8c1.3,0.6,1.3,0.6,2.6,1.2c0.3,1,0.7,2,1,3
	c1.6,1.4,1.6,1.4,3.4,2.7c0.6,0.4,1.2,0.9,1.9,1.3c1.6,1.2,1.6,1.2,3.7,1c0,0.7,0,1.3,0,2c1.4,1.2,1.4,1.2,3.4,2.4
	c3.8,2.4,7.5,5,11.1,7.6c48.5,34.8,102.4,60.4,159.6,77.2c2.4,0.7,4.8,1.4,7.2,2.2c22.4,6.8,46,10.5,69.2,13.5
	c0.8,0.1,1.6,0.2,2.4,0.3c20,2.6,39.8,3,60,2.9c3.3,0,6.7,0,10,0c3.2,0,6.4,0,9.6,0c1.2,0,2.4,0,3.6,0c1.7,0,1.7,0,3.3,0
	c1,0,1.9,0,2.9,0c2.3-0.1,4.3-0.5,6.6-1.1c1.7,0,3.4,0,5.1,0c3.1,0.1,5,0,7.9-1c1.5,0,3,0,4.5,0c5.5,0.1,10.8-0.4,16.2-1.1
	c1-0.1,2-0.3,3.1-0.4c19.5-2.6,39.2-6.5,58.2-11.5c0.7-0.2,1.5-0.4,2.2-0.6c24.9-6.6,49.6-14.9,73.2-25.3c2.5-1.1,4.9-2.1,7.4-3.2
	c10.2-4.4,19.9-9.3,29.6-14.6c2.8-1.5,5.6-3,8.4-4.5c1.9-1.1,3.9-2.1,5.8-3.2c0.9-0.5,1.8-1,2.7-1.5c5-2.7,9.8-5.6,14.5-8.8
	c2-1.4,4-2.7,6.1-4c19.8-12.6,39.6-26.4,56.8-42.4c3.3-3,6.9-5.7,10.4-8.4c0.6-0.5,1.2-1.1,1.8-1.6c0-0.7,0-1.3,0-2
	c0.9-0.4,0.9-0.4,1.8-0.8c2.2-1.2,3.6-2.3,5.3-4c0.6-0.6,1.2-1.2,1.8-1.8c0.6-0.6,1.2-1.2,1.9-1.9c0.6-0.6,1.3-1.3,1.9-2
	c1.4-1.4,2.7-2.7,4.1-4.1c2.1-2.1,4.1-4.1,6.2-6.2c1.3-1.3,2.7-2.7,4-4c0.6-0.6,1.2-1.2,1.8-1.8c4.3-4.3,8.3-8.8,12.3-13.4
	c0.9-1.1,1.9-2.2,2.8-3.2c7.8-8.9,15.1-18.2,22.2-27.8c0.6-0.7,1.1-1.5,1.7-2.2c10.9-14.7,20.9-30,30.2-45.8
	c1.2-2.1,2.5-4.2,3.8-6.3c7.3-12.2,13.5-24.8,19.4-37.7c0.3-0.7,0.7-1.4,1-2.2c2.1-4.6,4.1-9.2,6-13.8c0.4-0.9,0.7-1.7,1.1-2.6
	c14.8-35.4,25.4-71.6,31.9-109.4c0.2-0.9,0.3-1.8,0.5-2.7c3.7-21.5,3.7-21.5,4.5-43.2c0-2.1,0-2.1,1-3.1c0.1-2.5,0.1-5,0-7.5
	s-0.1-5,0-7.5c0.3-0.3,0.7-0.7,1-1c0.1-1.6,0.1-3.1,0.2-4.7c0-1,0-2,0-3c0-1.1,0-2.2,0-3.3s0-2.3,0-3.5c0-2.4,0-4.9,0-7.3
	c0-3.6,0-7.3,0-10.9c0-15.2-0.7-30.2-2.2-45.3c-0.2-2-0.4-4-0.6-6c-4.9-49.5-18.1-101.7-39.8-146.6c-1.3-2.8-2.6-5.5-3.8-8.3
	c-5.9-13.4-12.6-26.3-19.8-39.1c-0.4-0.8-0.9-1.5-1.3-2.3c-5.4-9.4-11.1-18.5-17-27.5c-1.8-2.8-3.6-5.5-5.3-8.3c-0.6-1-0.6-1-1.2-2
	c-0.8-1.2-1.6-2.5-2.3-3.7c-0.9-1.4-1.8-2.8-2.8-4.1c-0.7,0-1.3,0-2,0c-0.3-1.3-0.7-2.6-1-4c-0.7,0-1.3,0-2,0
	c-0.2-0.6-0.4-1.3-0.6-2c-1.9-4.2-4.6-7.7-7.4-11.3c-0.6-0.7-1.1-1.5-1.7-2.2c-0.5-0.7-1-1.4-1.6-2.1c-0.5-0.6-1-1.3-1.4-1.9
	c-0.7-0.7-0.7-0.7-1.3-1.4c-0.7,0-1.3,0-2,0c-0.3-0.6-0.6-1.2-0.9-1.8c-1.2-2.4-1.2-2.4-3.1-5.2c-0.7,0-1.3,0-2,0
	c-0.3-0.8-0.5-1.6-0.8-2.4c-0.6-1.3-0.6-1.3-1.2-2.6c-1-0.3-2-0.7-3-1c-0.7-1.3-1.3-2.7-2-4c-0.8-0.8-1.6-1.6-2.4-2.4
	c-2.6-2.6-2.6-2.6-4.5-5.6c-2.2-3.1-4.3-5-7.3-7.4c-2.6-2.3-4.8-5-7.1-7.6c-4.7-5.4-9.9-10.8-15.8-15c-0.7,0-1.3,0-2,0
	c-0.2-0.6-0.5-1.1-0.7-1.8c-1.7-2.9-3.6-4.4-6.3-6.2c-0.7,0-1.3,0-2,0c-0.2-0.6-0.5-1.2-0.8-1.8c-1.4-2.5-2.8-3.7-5.2-5.2
	c-0.7,0-1.3,0-2,0c0-0.7,0-1.3,0-2c-2.1-1.8-4.2-3.5-6.4-5.1c-0.6-0.5-1.2-0.9-1.8-1.4c-3.1-2.6-3.1-2.6-6.8-3.5c-0.3-1-0.7-2-1-3
	c-3.6-3-3.6-3-8-4c0-0.7,0-1.3,0-2c-1.3-0.3-2.6-0.7-4-1c0-0.7,0-1.3,0-2c-1.8-1.4-1.8-1.4-4.2-2.8c-4.7-2.9-9.3-5.9-13.9-8.9
	c-8.6-5.6-17.2-11.1-26.1-16.3c-1.7-1-3.3-1.9-4.9-2.9c-10.9-6.4-22.3-11.8-33.8-17.1c-1-0.5-2-0.9-3.1-1.4
	c-15.4-7-30.9-13.1-46.9-18.6c-0.9-0.3-1.9-0.6-2.8-1c-26.4-9.2-53.9-15.7-81.5-20.5C721,129,721,129,718,128
	c-1.7-0.2-3.4-0.3-5.1-0.4c-5.5-0.4-11-1-16.4-1.6c-1.2-0.1-1.2-0.1-2.4-0.2c-5.7-0.6-5.7-0.6-8.2-1.3c-2.5-0.6-4.9-0.5-7.5-0.5
	c-3.2,0.1-5.3,0-8.4-1c-2-0.1-4-0.1-6-0.1c-1.2,0-2.5,0-3.7,0c-1.4,0-2.7,0-4,0c-1.4,0-2.8,0-4.1,0c-2.9,0-5.8,0-8.7,0
	c-3.7,0-7.4,0-11.1,0c-2.9,0-5.7,0-8.5,0c-1.4,0-2.7,0-4.1,0c-1.9,0-3.8,0-5.7,0c-1.1,0-2.2,0-3.3,0C608,122.8,608,122.8,606,124z"
	/>
<path class="st19" d="M917.4,296.2c2.5,0,5.1,0.1,7.6,0.1c4.6,0.1,9.2,0.2,13.9,0.3c0.9,0,1.9,0.1,2.8,0.1c2.3,0.3,2.3,0.3,5.3,2.3
	c-0.7,0.6-1.3,1.3-2,1.9c-6.3,6.3-11.9,13.1-17.3,20.2c-0.5,0.6-1.1,1.2-1.7,1.9c-0.7,0-1.3,0-2,0c-0.2,0.6-0.5,1.1-0.7,1.7
	c-1.5,2.7-3.2,4.6-5.3,6.9c-3.2,3.5-6.3,7-9.2,10.7c-7.5,9.3-15.4,18.2-23.2,27.2c-2.2,2.5-4.3,5-6.5,7.5c-0.5,0.6-1.1,1.2-1.6,1.9
	c-1.6,1.8-3.2,3.7-4.8,5.5c-0.5,0.6-1,1.1-1.5,1.7c-3.4,4-6.7,8.1-9.8,12.4c-0.4,0.5-0.9,1-1.3,1.5c-0.7,0-1.3,0-2,0
	c-0.4,0.9-0.4,0.9-0.8,1.8c-1.1,2.1-2.2,3.6-3.8,5.4c-0.8,0.9-0.8,0.9-1.6,1.8c-0.6,0.6-1.1,1.2-1.7,1.9c-1.2,1.3-2.3,2.7-3.5,4
	c-0.6,0.7-1.2,1.4-1.8,2.1c-2.8,3.1-5.5,6.3-8.2,9.5c-0.5,0.6-1,1.2-1.5,1.8c-3.1,3.6-6,7.4-8.8,11.2c-1.9,2.4-4,4.5-6.2,6.6
	c-5.5,5.9-10.7,12-15.7,18.3c-3.6,4.4-7.4,8.5-11.3,12.7c-3.9,4.4-7.7,8.8-11.4,13.4c-3,3.6-6,7.2-9.1,10.6c-3.8,4.2-7.5,8.6-11,13
	c-6.2,7.6-12.6,15-19.1,22.2c-3.9,4.2-7.5,8.6-11.1,13.1c-2.9,3.5-6,6.8-9,10.2c-3.1,3.5-6,7.1-8.9,10.7c-1.7,2-3.4,3.9-5.2,5.8
	c-0.5,0.5-0.9,1-1.4,1.5c-1.3,1.4-2.7,2.7-4,4.1c-2,2.2-2,2.2-1.7,4.4c3.7,7.8,9.2,14.8,14.2,21.7c3.3,4.5,6.4,9.2,9.5,13.9
	c5,7.5,10.1,14.9,15.2,22.4c0.4,0.6,0.9,1.2,1.3,1.9c4.2,6.1,8.4,12.2,12.8,18.2c3.6,5,7.1,10.1,10.5,15.3c2,3.1,4.1,6.1,6.3,9.2
	c1,1.5,1,1.5,2.1,3c1.4,2,2.8,4,4.2,6c0.6,0.9,1.3,1.8,1.9,2.8c0.9,1.2,0.9,1.2,1.8,2.5c1.2,2,1.2,2,1.2,4c0.7,0,1.3,0,2,0
	c1.4,1.9,1.4,1.9,3,4.6c2.7,4.3,5.5,8.5,8.4,12.6c4.7,6.5,9.1,13.1,13.6,19.8c5,7.6,10.2,15.1,15.5,22.5c4.8,6.6,9.3,13.4,13.9,20.1
	c2,3,4.1,6,6.1,8.9c1.8,2.6,3.5,5.2,5.3,7.7c1.1,1.5,2.1,3.1,3.2,4.6c0.5,0.8,1.1,1.6,1.7,2.5c0.7,1,0.7,1,1.4,2
	c0.9,1.6,0.9,1.6,0.9,3.6c0.7,0,1.3,0,2,0c1.7,2.3,1.7,2.3,3.6,5.4c0.6,1,1.3,2,1.9,3c1.5,2.6,1.5,2.6,1.5,4.6c0.7,0,1.3,0,2,0
	c1.4,1.9,1.4,1.9,3,4.6c2.8,4.4,5.6,8.7,8.7,12.9c3.9,5.3,7.6,10.8,11.2,16.3c7,10.5,14.1,20.9,21.4,31.2
	c5.2,7.4,10.4,14.8,15.4,22.3c0.6,0.9,1.2,1.8,1.9,2.8c0.6,0.9,1.1,1.7,1.7,2.6c0.5,0.8,1,1.5,1.6,2.3c1.1,1.9,1.1,1.9,1.1,3.9
	c0.7,0,1.3,0,2,0c1.7,2.3,1.7,2.3,3.6,5.4c0.6,1,1.3,2,1.9,3c1.5,2.6,1.5,2.6,1.5,4.6c0.7,0,1.3,0,2,0c1.5,2.1,2.9,4.2,4.3,6.3
	c0.9,1.4,1.8,2.8,2.7,4.1c0.5,0.7,1,1.5,1.5,2.2c3.3,5,6.7,9.8,10.1,14.7c0.5,0.8,1,1.5,1.6,2.3c0.5,0.7,0.9,1.3,1.4,2
	c2,3,3.7,6.2,5.5,9.3c-26.1,0.1-52.2,0.2-78.4,0.2c-12.1,0-24.2,0-36.4,0.1c-10.6,0-21.1,0.1-31.7,0.1c-5.6,0-11.2,0-16.8,0
	c-5.3,0-10.5,0-15.8,0c-1.9,0-3.9,0-5.8,0c-2.6,0-5.3,0-7.9,0c-1.1,0-1.1,0-2.3,0c-4.9-0.1-7.4-1-10.9-4.5c-1.8-2.2-1.8-2.2-3.3-4.7
	c-0.6-0.9-1.2-1.8-1.8-2.7c-0.6-0.9-1.2-1.9-1.8-2.8c-0.6-0.9-1.2-1.8-1.8-2.8c-1.2-1.8-2.3-3.6-3.5-5.4c-2.2-3.3-4.4-6.6-6.7-9.9
	C746,948,746,948,746,946c-0.7,0-1.3,0-2,0c-1.2-1.5-1.2-1.5-2.5-3.5c-0.5-0.7-0.9-1.5-1.4-2.2c-0.5-0.8-1-1.6-1.5-2.4
	c-1-1.5-1.9-3-2.9-4.6c-0.5-0.7-0.9-1.5-1.4-2.2c-1.2-1.9-2.4-3.7-3.7-5.5C729,923,729,923,729,921c-0.7,0-1.3,0-2,0
	c-1.2-1.4-1.2-1.4-2.5-3.5c-0.5-0.8-1-1.6-1.6-2.4c-0.6-0.9-1.1-1.8-1.7-2.7c-1.2-1.9-2.5-3.8-3.8-5.7c-1-1.6-1-1.6-2.1-3.2
	c-4.9-7.4-9.9-14.7-14.9-22.1c-1.3-2-2.7-3.9-4-5.9c-0.4-0.6-0.8-1.2-1.2-1.8c-6.2-9.1-6.2-9.1-6.2-11.8c-0.7,0-1.3,0-2,0
	c-1.3-1.7-1.3-1.7-2.6-3.9c-0.5-0.7-0.9-1.4-1.3-2.2c-1-2-1-2-1-4c-0.7,0-1.3,0-2,0c-1.7-2.4-3.2-4.8-4.7-7.2
	c-4.3-6.8-8.8-13.5-13.5-20.1c-4.1-5.9-8.2-11.7-12-17.8c-2-3.1-4.1-6.1-6.3-9.1c-5.8-8-11.2-16.2-16.6-24.4
	c-5.6-8.4-11.2-16.8-17.2-25c-2.3-3.2-4.5-6.4-6.6-9.6c-0.6-0.9-0.6-0.9-1.2-1.9c-2.2-3.3-4.3-6.5-6.4-9.8c-0.6-1-0.6-1-1.2-2
	c-0.8-1.2-1.6-2.5-2.3-3.7c-1.9-3.2-1.9-3.2-4.9-5.3c-0.2,0.6-0.5,1.1-0.7,1.7c-1.6,2.9-3.6,5-5.9,7.4c-3.5,3.7-6.8,7.5-10,11.5
	c-2.9,3.6-5.8,7-8.9,10.4c-3.8,4.2-7.4,8.5-11,13c-3.5,4.2-7.1,8.4-10.8,12.5c-3.9,4.5-7.7,9.1-11.3,13.9c-0.5,0.5-1,1.1-1.5,1.7
	c-0.7,0-1.3,0-2,0c-0.3,0.6-0.5,1.2-0.8,1.8c-1.1,2.1-2.2,3.6-3.8,5.3c-0.8,0.9-0.8,0.9-1.6,1.8c-0.6,0.6-1.1,1.2-1.7,1.9
	c-1.2,1.3-2.4,2.7-3.5,4c-0.6,0.7-1.2,1.4-1.8,2.1c-2.9,3.3-5.7,6.5-8.6,9.8c-0.6,0.6-1.1,1.2-1.6,1.9c-3.2,3.6-6.3,7.3-9.3,11.1
	c-3.8,4.7-7.8,9.1-11.8,13.5c-3.2,3.6-6.2,7.3-9.3,11.1c-2.2,2.6-4.4,5.2-6.7,7.7c-3.9,4.3-7.6,8.8-11.2,13.3
	c-2.2,2.7-4.5,5.2-6.8,7.8c-2.9,3.2-5.6,6.4-8.2,9.7c-3.7,4.7-7.7,9-11.8,13.4c-3.7,4-7.1,8.1-10.5,12.4c-2.7,3.4-5.7,6.6-8.6,9.8
	c-2.3,2.6-4.6,5.3-6.8,8.1c-3.6,4.5-7.4,8.7-11.2,13c-3.1,3.5-6,7.1-9,10.8c-3,3.6-6.1,7-9.2,10.5c-2.1,2.2-2.1,2.2-3.4,4.9
	c-4.4,3.9-9.3,3.1-15,3c-1.2,0-2.4,0-3.7,0c-2.6,0-5.1,0-7.7-0.1c-3.9,0-7.8,0-11.8,0c-2.5,0-5,0-7.4,0c-1.2,0-2.3,0-3.6,0
	c-1.1,0-2.2,0-3.3-0.1c-1,0-1.9,0-2.9,0c-2.8-0.5-3.7-1.2-5.4-3.4c0.7,0,1.3,0,2,0c0.2-0.5,0.5-1.1,0.7-1.7c1.7-3.1,4-5.4,6.4-8
	c3.3-3.4,3.3-3.4,5.9-7.4c0.7,0,1.3,0,2,0c0.2-0.5,0.4-1,0.7-1.6c1.8-3.3,4.2-6,6.7-8.8c1.1-1.3,2.2-2.5,3.3-3.8
	c0.6-0.6,1.1-1.3,1.7-1.9c2.6-2.9,5.1-5.9,7.7-8.9c1-1.2,2-2.3,3-3.5c2-2.4,4.1-4.8,6.1-7.2c1-1.2,2.1-2.4,3.1-3.6
	c0.5-0.6,1-1.2,1.5-1.8c3-3.5,6.1-6.9,9.2-10.3c3.3-3.6,6.2-7.3,8.9-11.2c0.4-0.5,0.8-0.9,1.2-1.4c0.7,0,1.3,0,2,0
	c0.2-0.5,0.4-1,0.7-1.6c1.8-3.3,4.3-6.1,6.8-8.9c1-1.1,2-2.3,2.9-3.4c0.5-0.5,0.9-1.1,1.4-1.6c1-1.2,2-2.6,3-3.9
	c0.4-0.5,0.8-1.1,1.3-1.6c0.7,0,1.3,0,2,0c0.2-0.5,0.5-1.1,0.7-1.7c1.6-2.9,3.6-5,5.9-7.4c3.3-3.5,6.5-7.1,9.4-10.9
	c3.4-4.3,7-8.3,10.6-12.4c2.3-2.6,4.6-5.3,6.8-8.1c3.6-4.5,7.4-8.7,11.3-13c2.3-2.6,4.5-5.2,6.6-7.9c3.7-4.5,7.5-8.9,11.5-13.1
	c3.8-4.1,7.4-8.5,10.9-12.8c2.1-2.6,4.4-5.1,6.7-7.6c3.1-3.4,6.1-6.9,9-10.5c3.6-4.5,7.4-8.7,11.3-13c3.1-3.5,6-7.1,9-10.8
	c3.1-3.7,6.3-7.2,9.5-10.8c1.8-1.9,1.8-1.9,2.7-4c0.7,0,1.3,0,2,0c0.2-0.6,0.5-1.1,0.7-1.7c1.5-2.8,3.4-4.8,5.5-7
	c3.5-3.8,6.6-7.6,9.5-11.9c0.6-0.7,0.6-0.7,1.2-1.4c0.7,0,1.3,0,2,0c0.4-0.9,0.4-0.9,0.8-1.8c1.1-2.2,2.4-3.8,4-5.6
	c0.6-0.6,1.1-1.3,1.7-1.9c0.6-0.6,1.2-1.3,1.8-2c1.7-1.9,3.4-3.8,5.1-5.8c1.1-1.3,2.3-2.5,3.5-3.7c1.6-1.7,3-3.2,4.2-5.2
	c-0.5-5-3.7-8.6-6.7-12.6c-4.5-6-8.8-12.1-12.9-18.3c-5.3-8-10.7-16-16.1-24c-6.1-9-12.2-18-18.3-27.1c-0.7-1.1-1.5-2.2-2.3-3.3
	C503,591,503,591,503,589c-0.6,0-1.3,0-2,0c-1.2-1.4-1.2-1.4-2.5-3.5c-0.8-1.2-0.8-1.2-1.6-2.4c-0.6-0.9-1.1-1.8-1.7-2.7
	c-1.3-1.9-2.5-3.8-3.8-5.8c-0.7-1.1-1.4-2.1-2.1-3.2c-4.2-6.4-8.5-12.7-12.8-19.1c-0.9-1.4-1.8-2.7-2.7-4
	c-4.9-7.2-9.8-14.4-14.8-21.6c-4.2-6.2-8.4-12.4-12.6-18.6c-0.5-0.8-1-1.5-1.5-2.3c-2.4-3.5-4.4-6.8-5.8-10.9c-0.6,0-1.3,0-2,0
	c-1.8-2.5-3.4-5-5-7.6c-3.4-5.4-6.8-10.6-10.6-15.8c-5-6.8-9.6-13.8-14.2-20.8c-5.3-8-10.7-16.1-16.2-24.1
	c-5.4-7.9-10.7-15.8-16-23.8c-0.4-0.5-0.8-1.1-1.2-1.7c-2.8-4.1-2.8-4.1-2.8-6.3c-0.7,0-1.3,0-2,0c-1.4-2-1.4-2-3.1-4.8
	c-3.3-5.4-6.8-10.6-10.4-15.8C354,372,354,372,354,370c-0.7,0-1.3,0-2,0c-1.5-2.1-3-4.2-4.4-6.4c-0.9-1.4-1.8-2.8-2.7-4.2
	c-0.7-1.1-0.7-1.1-1.4-2.2c-2.4-3.7-4.9-7.4-7.3-11.1c-0.8-1.1-0.8-1.1-1.5-2.3c-3.5-5.3-7.2-10.6-10.9-15.8
	c-4.4-6.2-8.7-12.5-12.7-19.1c-0.4-0.7-0.9-1.4-1.3-2.1c-2.7-4.6-2.7-4.6-2.7-6.9c25.4-0.4,50.7-0.6,76.1-0.8
	c11.8-0.1,23.6-0.2,35.3-0.4c10.3-0.1,20.5-0.2,30.8-0.3c5.4,0,10.9-0.1,16.3-0.2c5.1-0.1,10.2-0.1,15.4-0.1c1.9,0,3.7,0,5.6-0.1
	c13.8-0.4,13.8-0.4,18.3,3.3c3.3,3.6,5.8,7.5,8.2,11.8c1.3,2.3,2.7,4.4,4.2,6.6c1.8,3.2,1.8,3.2,1.8,5.2c0.7,0,1.3,0,2,0
	c1.7,2.3,1.7,2.3,3.6,5.4c0.6,1,1.3,2,1.9,3c1.5,2.6,1.5,2.6,1.5,4.6c0.7,0,1.3,0,2,0c1.4,2,1.4,2,3.1,4.7
	c3.3,5.3,6.8,10.5,10.3,15.6c3.1,4.4,6.2,8.9,9.2,13.4c3.8,5.6,7.7,11.2,11.6,16.7c2.5,3.6,5,7.2,7.5,10.9c0.7,1,0.7,1,1.4,2
	c0.9,1.3,1.8,2.6,2.7,3.9c0.8,1.2,1.6,2.4,2.5,3.6c2.8,4,2.8,4,2.8,6.2c0.7,0,1.3,0,2,0c1.4,1.9,1.4,1.9,3,4.6
	c2.7,4.4,5.5,8.6,8.6,12.8c4.5,6.2,8.8,12.5,13.1,18.9c0.6,0.9,1.3,1.9,1.9,2.8c0.6,0.9,1.2,1.7,1.8,2.6c0.8,1.2,0.8,1.2,1.6,2.4
	c1.1,1.9,1.1,1.9,1.1,3.9c0.7,0,1.3,0,2,0c1.6,2.2,3.1,4.3,4.5,6.6c0.9,1.4,1.8,2.8,2.7,4.1c0.5,0.7,0.9,1.4,1.4,2.1
	c2.2,3.3,4.4,6.7,6.6,10c0.4,0.6,0.8,1.2,1.1,1.7c3.5,5.2,7.1,10.3,10.7,15.5c24,34.3,24,34.3,24,37c0.7,0,1.3,0,2,0
	c0.2,0.8,0.5,1.6,0.8,2.4c0.4,0.8,0.8,1.7,1.2,2.6c2,0.7,2,0.7,4,1c6.5-7,12.9-13.9,18.9-21.4c2.1-2.6,4.4-5.1,6.6-7.6
	c3.1-3.4,6.1-6.9,8.9-10.4c3.9-4.8,7.9-9.3,12.1-13.8c2.4-2.7,4.7-5.4,7-8.2c3.1-3.8,6.2-7.4,9.5-11c4.1-4.5,8-9.1,11.8-13.8
	c2.2-2.6,4.4-5.2,6.7-7.7c5.4-6,10.5-12.1,15.5-18.5c2.2-2.7,4.6-5,7-7.5c2-2.2,3.9-4.4,5.8-6.7c0.5-0.6,1-1.2,1.6-1.8
	c3.8-4.5,7.5-9.1,11.1-13.8c0.5-0.6,1-1.1,1.5-1.7c0.7,0,1.3,0,2,0c0.4-0.9,0.4-0.9,0.8-1.8c1.1-2.1,2.2-3.6,3.8-5.3
	c0.5-0.6,1-1.2,1.5-1.8c0.8-0.9,0.8-0.9,1.7-1.9c1.2-1.4,2.4-2.7,3.5-4c0.6-0.7,1.2-1.4,1.8-2.1c2.8-3.2,5.6-6.4,8.4-9.6
	c0.5-0.6,1.1-1.2,1.6-1.9c1.6-1.9,3.2-3.7,4.8-5.6c0.8-1,0.8-1,1.7-2c1.7-1.9,3.3-3.9,5-5.8c0.5-0.6,1-1.2,1.5-1.8
	c2.1-2.4,4-4.8,5.8-7.5c0.7,0,1.3,0,2,0c0.2-0.6,0.5-1.1,0.8-1.7c1.5-2.7,3.2-4.6,5.3-6.9c3.3-3.6,6.4-7.2,9.4-10.9
	c4.3-5.3,8.9-10.4,13.5-15.5c1.2-1.3,2.3-2.6,3.5-3.9c0.8-0.9,0.8-0.9,1.7-1.8c2-2.2,2-2.2,3.2-5
	C889.6,292.4,904.5,295.8,917.4,296.2z"/>
<g>
	<defs>
		<path id="SVGID_00000000194664418571676230000010947608878033482117_" d="M668,622c0.7,0,1.3,0,2,0c0.5,2,0.5,2,1,4
			c0.7,0,1.3,0,2,0c1.4,1.9,1.4,1.9,3,4.6c3.4,5.5,7,10.6,10.8,15.8c3.2,4.4,3.2,4.4,3.2,6.6c0.7,0,1.3,0,2,0
			c1.3,1.7,1.3,1.7,2.6,3.9c0.5,0.7,0.9,1.4,1.4,2.2c1,2,1,2,1,4c0.7,0,1.3,0,2,0c1.5,2.2,1.5,2.2,3.3,5.1c2.1,3.4,4.2,6.8,6.6,10
			c2.1,2.9,2.1,2.9,2.1,4.9c0.7,0,1.3,0,2,0c1.3,1.8,1.3,1.8,2.9,4.4c3.1,5.1,6.5,10,9.9,14.9c0.8,1.1,0.8,1.1,1.6,2.2
			c1.5,2.2,3.1,4.3,4.6,6.5c0.7,1,0.7,1,1.4,2c1.7,2.4,3.4,4.8,5.1,7.2c2.9,4.1,5.8,8.1,8.6,12.2c1.4,2,2.8,4,4.2,6
			c0.8,1.2,1.7,2.4,2.5,3.6c0.4,0.6,0.8,1.1,1.2,1.7c2.8,4.1,2.8,4.1,2.8,6.3c0.7,0,1.3,0,2,0c3,4.4,3,4.4,3,7c0.7,0,1.3,0,2,0
			c0.7,2,1.3,4,2,6c0.7,0,1.3,0,2,0c1.5,2.1,3,4.2,4.4,6.4c0.9,1.4,1.8,2.8,2.7,4.1c0.5,0.7,1,1.5,1.4,2.2c2.4,3.6,4.9,7.2,7.5,10.8
			c0.8,1.1,0.8,1.1,1.5,2.2c2.4,3.4,4.9,6.8,7.3,10.3c0.5,0.6,0.9,1.2,1.4,1.9c0.8,1.2,1.7,2.3,2.5,3.5c7.3,10.2,7.3,10.2,7.3,12.6
			c0.7,0,1.3,0,2,0c3,4.4,3,4.4,3,7c0.7,0,1.3,0,2,0c1.5,2,1.5,2,3.1,4.8c3.1,5,6.4,9.7,9.9,14.5c2,2.8,4,5.5,6,8.3
			c0.6,0.8,1.2,1.6,1.8,2.4c1.2,2,1.2,2,1.2,4c0.7,0,1.3,0,2,0c1.1,1.4,1.1,1.4,2.3,3.4c0.4,0.7,0.9,1.4,1.3,2.1
			c0.5,0.8,0.9,1.5,1.4,2.3c0.5,0.7,0.9,1.5,1.4,2.2c2,3.3,3.9,6.6,5.6,10c0.7,0,1.3,0,2,0c1.4,2,2.7,4,4,6.1
			c3.7,6,7.7,11.8,11.9,17.4c3.1,4.2,3.1,4.2,3.1,6.4c0.7,0,1.3,0,2,0c1.3,1.8,1.3,1.8,2.9,4.5c3.6,5.9,7.5,11.5,11.5,17.2
			c3.6,5.1,3.6,5.1,3.6,7.3c-11.7,0.1-23.3,0.2-35,0.2c-5.4,0-10.8,0.1-16.2,0.1c-5.2,0-10.5,0.1-15.7,0.1c-2,0-4,0-6,0
			c-2.8,0-5.6,0-8.4,0c-0.8,0-1.7,0-2.5,0c-3.7,0-5.8-0.2-8.8-2.4C795,933,795,933,795,931c-0.7,0-1.3,0-2,0
			c-1.6-2.3-1.6-2.3-3.4-5.2c-2.5-4.1-2.5-4.1-5.3-8C783,916,783,916,783,914c-0.7,0-1.3,0-2,0c-1.3-1.7-1.3-1.7-2.6-3.9
			c-0.5-0.7-0.9-1.4-1.4-2.2c-1-2-1-2-1-4c-0.7,0-1.3,0-2,0c-3-4.4-3-4.4-3-7c-0.7,0-1.3,0-2,0c-1.2-1.7-1.2-1.7-2.8-4.2
			c-3.5-5.7-7.2-11.1-11.1-16.6c-0.6-0.9-1.2-1.7-1.8-2.6c-2.8-4-5.6-7.9-8.4-11.8c-0.5-0.6-0.9-1.3-1.4-1.9c-1.2-1.7-2.4-3.3-3.7-5
			c-1.7-2.6-2.9-4.9-3.9-7.8c-0.7,0-1.3,0-2,0c-1.4-2-2.7-4-4-6c-1.3-1.9-2.6-3.8-3.9-5.7c-2.7-3.9-5.4-7.8-8.1-11.8
			c-5.4-8-10.9-15.9-16.6-23.8c-4.3-5.9-8.5-11.8-12.7-17.8c-0.5-0.7-1-1.3-1.4-2c-3.2-4.7-3.2-4.7-3.2-7c-0.7,0-1.3,0-2,0
			c-1.7-2.3-1.7-2.3-3.6-5.4c-0.6-1-1.3-2-1.9-3C675,762,675,762,675,760c-0.7,0-1.3,0-2,0c-1.6-2.2-3-4.4-4.5-6.6
			c-0.9-1.4-1.8-2.8-2.7-4.2c-0.5-0.7-0.9-1.4-1.4-2.1c-2-3-4.1-6-6.2-8.9c-0.4-0.5-0.8-1.1-1.2-1.7c-0.8-1.2-1.7-2.3-2.5-3.5
			c-2.7-3.7-5.4-7.5-8-11.2c-0.5-0.7-1.1-1.5-1.6-2.2c-0.5-0.7-1-1.4-1.5-2.1c-0.7-0.9-0.7-0.9-1.3-1.8C641,714,641,714,641,712
			c-0.7,0-1.3,0-2,0c-1.7-2.3-1.7-2.3-3.6-5.4c-0.6-1-1.3-2-1.9-3C632,701,632,701,632,699c-0.7,0-1.3,0-2,0
			c-1.3-1.7-1.3-1.7-2.6-3.9c-0.5-0.7-0.9-1.4-1.4-2.2c-1-2-1-2-1-4c-0.7,0-1.3,0-2,0c-4.1-6.4-4.1-6.4-3.7-8.9
			c1.2-3.5,3.8-6,6.2-8.7c0.5-0.6,1.1-1.2,1.6-1.9c3.9-4.4,7.8-8.8,11.8-13.1c2.8-3.2,5.4-6.5,8-9.9c2.8-3.4,5.8-6.7,8.7-9.9
			c3.3-3.7,6.4-7.6,9.6-11.4C667,623,667,623,668,622z"/>
	</defs>
	<clipPath id="SVGID_00000109710412721435027540000012558594058707209607_">
		<use xlink:href="#SVGID_00000000194664418571676230000010947608878033482117_"  style="overflow:visible;"/>
	</clipPath>
	<g style="clip-path:url(#SVGID_00000109710412721435027540000012558594058707209607_);">
		<path class="st1" d="M-1052.5-34.7c2634.5,0,5269.1,0,7903.6,0c25.4,0,30.5,5.1,30.5,15.3c0,213.6,0,422.1,0,635.7
			c-10.2,5.1-20.3,5.1-35.6,5.1c-15.3,0-30.5,0-45.8,0c-2054.7,0-4114.6,0-6169.3,0c-20.3,0-45.8,0-66.1,0
			c-20.3-5.1-35.6-5.1-55.9-5.1c-66.1,0-132.2,0-203.4,0c-35.6,0-61-5.1-86.5-20.3C-121.7,423-457.4,255.2-798.2,92.4
			c-81.4-40.7-162.8-81.4-249.2-122.1C-1052.5-24.6-1057.6-24.6-1052.5-34.7C-1057.6-34.7-1057.6-34.7-1052.5-34.7z"/>
		<path class="st2" d="M239.4,397.6c178,0,356,0,534,0c1312.2,0,2619.3,0,3931.5,0c615.4,0,1225.7,0,1841.1,0c10.2,0,25.4,0,35.6,0
			c0,178,0,350.9,0,528.9c-10.2,0-25.4,0-35.6,0c-1276.6,0-2548.1,0-3824.6,0c-803.6,0-1607.2,0-2410.8,0c-117,0-234,5.1-356,5.1
			c-5.1-5.1,15.3-10.2,25.4-15.3c198.4-76.3,396.7-157.7,595.1-234c5.1-5.1,10.2-5.1,15.3-5.1c20.3-5.1,15.3-10.2,0-15.3
			c-25.4-10.2-45.8-20.3-66.1-25.4C341.1,560.3,173.3,484-9.8,417.9c-5.1,0-5.1-5.1-10.2-5.1c-5.1-5.1-15.3-5.1-10.2-10.2
			c5.1-5.1,15.3-5.1,20.3-5.1C71.5,397.6,158,397.6,239.4,397.6z"/>
		<path class="st3" d="M6688.4,901.1c0,162.8,0,325.5,0,488.3c0,10.2-5.1,10.2-30.5,10.2c-2639.6,0-5274.2,0-7913.8,0c0,0,0,0,0-5.1
			l0,0c5.1-5.1,15.3-5.1,20.3-10.2c188.2-71.2,371.3-142.4,564.5-213.6c147.5-55.9,295-111.9,442.5-167.8
			c86.5-35.6,167.8-66.1,254.3-96.6C41,901.1,56.3,896,81.7,896c5.1,0,10.2,0,20.3,0c137.3,0,274.6-5.1,417-5.1
			c2034.4,0,4068.8,0,6103.2,0C6642.6,896,6668,896,6688.4,901.1z"/>
		<path class="st4" d="M381.8,275.5c15.3,10.2,20.3,15.3,30.5,20.3c157.7,96.6,315.3,198.4,478.1,295c30.5,20.3,30.5,20.3,0,35.6
			C727.6,728.2,559.8,829.9,397,936.7c-5.1,5.1-10.2,10.2-20.3,10.2c-66.1,40.7-127.1,81.4-193.3,122.1
			c-289.9,183.1-579.8,366.2-869.7,544.2c-5.1,5.1-5.1,5.1-10.2,5.1c-5.1-5.1,0-10.2,0-15.3c0-20.3,0-35.6,0-50.9
			c0-40.7,0-76.3,0-117c0-30.5,0-66.1,0-96.6c0-86.5,0-178,0-264.5c0-96.6,0-188.2,0-284.8c0-5.1,0-10.2,0-15.3
			c0-76.3,0-152.6,0-228.9c5.1-10.2,0-20.3,0-35.6c0-40.7,0-81.4,0-122.1c0-61,0-127.1,0-188.2c0-55.9,0-111.9,0-172.9
			c0-45.8,0-96.6,0-142.4c0-20.3,0-40.7,0-61s0-40.7,0-66.1s0-55.9,0-81.4c0-20.3,0-35.6,0-50.9c5.1-5.1-10.2-10.2,5.1-20.3
			c356,218.7,706.9,442.5,1052.8,661.2"/>
		<path class="st5" d="M-1067.7,987.6c10.2,5.1,5.1,10.2,5.1,10.2c0,71.2,0,142.4,0,213.6h-5.1
			C-1067.7,1135.1-1067.7,1063.8-1067.7,987.6z"/>
		<path class="st6" d="M-1067.7,1211.3h5.1c0,66.1,0,132.2,0,198.4h-5.1C-1067.7,1343.6-1067.7,1277.5-1067.7,1211.3z"/>
		<path class="st7" d="M-1062.6,560.3c0,45.8,0,96.6,0,142.4h-5.1c0-45.8,0-96.6,0-142.4H-1062.6z"/>
		<path class="st8" d="M-1062.6,560.3h-5.1c0-40.7,0-86.5,0-127.1h5.1C-1062.6,479-1062.6,519.6-1062.6,560.3z"/>
		<path class="st9" d="M-1067.7,702.7h5.1c0,35.6,0,66.1,0,101.7c0,5.1,5.1,10.2-5.1,10.2C-1067.7,779-1067.7,738.3-1067.7,702.7z"
			/>
		<path class="st10" d="M-1062.6,433.2h-5.1c0-35.6,0-71.2,0-101.7h5.1C-1062.6,362-1062.6,397.6-1062.6,433.2z"/>
		<path class="st11" d="M-1062.6,1480.9c0,25.4,0,55.9,0,86.5h-5.1c0-25.4,0-55.9,0-86.5
			C-1062.6,1480.9-1062.6,1480.9-1062.6,1480.9z"/>
		<path class="st8" d="M-1062.6,1480.9h-5.1c0-25.4,0-45.8,0-71.2h5.1C-1062.6,1435.1-1062.6,1460.6-1062.6,1480.9z"/>
		<path class="st12" d="M-1062.6,173.8c0,20.3,0,40.7,0,66.1h-5.1c0-20.3,0-40.7,0-66.1H-1062.6z"/>
		<path class="st13" d="M-1067.7,239.9h5.1c0,15.3,0,30.5,0,45.8h-5.1C-1067.7,270.4-1067.7,255.2-1067.7,239.9z"/>
		<path class="st14" d="M-1067.7,285.7h5.1c0,15.3,0,30.5,0,45.8h-5.1C-1067.7,316.2-1067.7,301-1067.7,285.7z"/>
		<path class="st15" d="M-1062.6,173.8h-5.1c0-10.2,0-25.4,0-40.7h5.1C-1062.6,143.3-1062.6,158.5-1062.6,173.8z"/>
		<path class="st16" d="M-1067.7,1567.4h5.1c0,10.2,0,25.4,0,40.7h-5.1C-1067.7,1592.8-1067.7,1582.6-1067.7,1567.4z"/>
		<path class="st17" d="M-1062.6,133.1h-5.1c0-5.1,0-10.2,0-10.2c0-5.1,10.2,0,10.2-5.1v5.1C-1067.7,122.9-1057.6,128-1062.6,133.1z
			"/>
		<path class="st18" d="M-1067.7,1608h5.1c0,5.1,0,5.1,0,10.2v5.1C-1072.8,1613.1-1062.6,1613.1-1067.7,1608z"/>
	</g>
</g>
<g>
	<defs>
		<path id="SVGID_00000067914575562895461030000006046136873995725193_" d="M393.1,341.6c0.8,0,1.7,0,2.5-0.1
			c7.8-0.2,15.6-0.4,23.3-0.5c5.2-0.1,10.4-0.2,15.7-0.4c5.1-0.2,10.1-0.3,15.2-0.3c1.9,0,3.8-0.1,5.8-0.2
			c14.6-0.6,14.6-0.6,19.2,3.2c3.3,3.8,5.8,8,8,12.4c1.2,2.1,2.5,4,3.9,5.9c2.2,3.1,2.2,3.1,2.2,5.1c0.7,0,1.3,0,2,0
			c1.5,2.2,1.5,2.2,3.3,5.1c2.1,3.4,4.2,6.8,6.6,10c2.1,2.9,2.1,2.9,2.1,4.9c0.7,0,1.3,0,2,0c1.4,1.9,1.4,1.9,3,4.6
			c3.4,5.5,7,10.6,10.8,15.8c3.2,4.4,3.2,4.4,3.2,6.6c0.7,0,1.3,0,2,0c1.4,2,1.4,2,3.1,4.8c3.2,5.2,6.7,10.1,10.4,15
			c1.5,2.2,1.5,2.2,1.5,4.2c0.7,0,1.3,0,2,0c1.4,1.9,1.4,1.9,3,4.6c3.4,5.5,7,10.6,10.8,15.8c3.2,4.4,3.2,4.4,3.2,6.6
			c0.7,0,1.3,0,2,0c1.5,2,1.5,2,3.2,4.9c3,4.9,6.2,9.5,9.5,14.1c1.3,2,1.3,2,1.3,4c0.7,0,1.3,0,2,0c1.4,1.9,1.4,1.9,3,4.6
			c3.4,5.5,7,10.6,10.8,15.8c3.2,4.4,3.2,4.4,3.2,6.6c0.7,0,1.3,0,2,0c1.7,2.3,1.7,2.3,3.6,5.4c0.6,1,1.3,2,1.9,3
			c1.5,2.6,1.5,2.6,1.5,4.6c0.7,0,1.3,0,2,0c1.7,2.3,1.7,2.3,3.6,5.3c0.6,1,1.2,2,1.9,3c1.6,2.7,1.6,2.7,2.6,5.7c0.7,0,1.3,0,2,0
			c1.5,2.2,1.5,2.2,3.3,5.1c2.1,3.4,4.2,6.8,6.6,10c2.1,2.9,2.1,2.9,2.1,4.9c0.7,0,1.3,0,2,0c1.6,2.3,1.6,2.3,3.4,5.2
			c2.5,4.1,2.5,4.1,5.3,8c1.3,1.8,1.3,1.8,1.3,3.8c0.7,0,1.3,0,2,0c2.1,3.4,2.1,3.4,1.8,5.8c-3,8-11.6,15.2-17.4,21.4
			c-3.7,4-7.1,8.1-10.5,12.4c-2.7,3.4-5.7,6.6-8.6,9.8c-3.9,4.4-7.6,9-11.3,13.6c-4.9-1.4-7-4.2-9.7-8.3c-0.4-0.6-0.8-1.1-1.2-1.7
			c-2.2-3.2-3.8-6.3-5.1-10c-0.7,0-1.3,0-2,0c-3-4.4-3-4.4-3-7c-0.7,0-1.3,0-2,0c-1.5-2.1-1.5-2.1-3.2-4.9c-3-4.9-6.2-9.5-9.5-14.1
			c-1.3-2-1.3-2-1.3-4c-0.7,0-1.3,0-2,0c-3-4.4-3-4.4-3-7c-0.7,0-1.3,0-2,0c-3-4.4-3-4.4-3-7c-0.7,0-1.3,0-2,0c-1.5-2-1.5-2-3.1-4.8
			c-3.1-5.1-6.5-9.9-10.1-14.7c-5.8-7.9-5.8-7.9-5.8-10.5c-0.7,0-1.3,0-2,0c-1.6-2.3-1.6-2.3-3.4-5.2c-2.5-4.1-2.5-4.1-5.3-8
			C514,533,514,533,514,531c-0.7,0-1.3,0-2,0c-1.7-2.3-1.7-2.3-3.6-5.4c-0.6-1-1.3-2-1.9-3C505,520,505,520,505,518
			c-0.7,0-1.3,0-2,0c-1.8-2.4-3.5-4.8-5.1-7.4c-0.5-0.7-0.9-1.4-1.4-2.1c-3.5-5.2-3.5-5.2-3.5-7.5c-0.7,0-1.3,0-2,0
			c-1.7-2.3-1.7-2.3-3.6-5.4c-0.6-1-1.3-2-1.9-3C484,490,484,490,484,488c-0.7,0-1.3,0-2,0c-1.6-2.2-3-4.4-4.5-6.6
			c-4-6.1-8.1-12.1-12.5-18c-3-4.2-3-4.2-3-6.4c-0.7,0-1.3,0-2,0c-1.5-2-1.5-2-3.1-4.8c-3.1-5-6.4-9.8-9.9-14.5
			c-3.1-4.2-6-8.4-9-12.7c-0.4-0.6-0.9-1.2-1.3-1.9c-2.7-3.9-2.7-3.9-2.7-6.1c-0.7,0-1.3,0-2,0c-1.3-1.6-1.3-1.6-2.8-3.9
			c-0.5-0.8-1-1.6-1.6-2.5c-0.5-0.9-1.1-1.7-1.7-2.6c-1.6-2.4-3.3-4.8-4.9-7.1C420,399,420,399,420,397c-0.7,0-1.3,0-2,0
			c-1.4-2-1.4-2-3.1-4.8c-3.2-5.2-6.7-10.1-10.4-15C403,375,403,375,403,373c-0.7,0-1.3,0-2,0c-1.5-2.2-1.5-2.2-3.3-5.1
			c-2.1-3.4-4.2-6.8-6.6-10C389,355,389,355,389,353c-0.7,0-1.3,0-2,0c-4-6.6-4-6.6-4-10C386.2,341.4,389.6,341.7,393.1,341.6z"/>
	</defs>
	<clipPath id="SVGID_00000131361864179377658160000003846402097021689738_">
		<use xlink:href="#SVGID_00000067914575562895461030000006046136873995725193_"  style="overflow:visible;"/>
	</clipPath>
	<g style="clip-path:url(#SVGID_00000131361864179377658160000003846402097021689738_);">
		<path class="st1" d="M-1052.5-34.7c2634.5,0,5269.1,0,7903.6,0c25.4,0,30.5,5.1,30.5,15.3c0,213.6,0,422.1,0,635.7
			c-10.2,5.1-20.3,5.1-35.6,5.1c-15.3,0-30.5,0-45.8,0c-2054.7,0-4114.6,0-6169.3,0c-20.3,0-45.8,0-66.1,0
			c-20.3-5.1-35.6-5.1-55.9-5.1c-66.1,0-132.2,0-203.4,0c-35.6,0-61-5.1-86.5-20.3C-121.7,423-457.4,255.2-798.2,92.4
			c-81.4-40.7-162.8-81.4-249.2-122.1C-1052.5-24.6-1057.6-24.6-1052.5-34.7C-1057.6-34.7-1057.6-34.7-1052.5-34.7z"/>
		<path class="st2" d="M239.4,397.6c178,0,356,0,534,0c1312.2,0,2619.3,0,3931.5,0c615.4,0,1225.7,0,1841.1,0c10.2,0,25.4,0,35.6,0
			c0,178,0,350.9,0,528.9c-10.2,0-25.4,0-35.6,0c-1276.6,0-2548.1,0-3824.6,0c-803.6,0-1607.2,0-2410.8,0c-117,0-234,5.1-356,5.1
			c-5.1-5.1,15.3-10.2,25.4-15.3c198.4-76.3,396.7-157.7,595.1-234c5.1-5.1,10.2-5.1,15.3-5.1c20.3-5.1,15.3-10.2,0-15.3
			c-25.4-10.2-45.8-20.3-66.1-25.4C341.1,560.3,173.3,484-9.8,417.9c-5.1,0-5.1-5.1-10.2-5.1c-5.1-5.1-15.3-5.1-10.2-10.2
			c5.1-5.1,15.3-5.1,20.3-5.1C71.5,397.6,158,397.6,239.4,397.6z"/>
		<path class="st3" d="M6688.4,901.1c0,162.8,0,325.5,0,488.3c0,10.2-5.1,10.2-30.5,10.2c-2639.6,0-5274.2,0-7913.8,0c0,0,0,0,0-5.1
			l0,0c5.1-5.1,15.3-5.1,20.3-10.2c188.2-71.2,371.3-142.4,564.5-213.6c147.5-55.9,295-111.9,442.5-167.8
			c86.5-35.6,167.8-66.1,254.3-96.6C41,901.1,56.3,896,81.7,896c5.1,0,10.2,0,20.3,0c137.3,0,274.6-5.1,417-5.1
			c2034.4,0,4068.8,0,6103.2,0C6642.6,896,6668,896,6688.4,901.1z"/>
		<path class="st4" d="M381.8,275.5c15.3,10.2,20.3,15.3,30.5,20.3c157.7,96.6,315.3,198.4,478.1,295c30.5,20.3,30.5,20.3,0,35.6
			C727.6,728.2,559.8,829.9,397,936.7c-5.1,5.1-10.2,10.2-20.3,10.2c-66.1,40.7-127.1,81.4-193.3,122.1
			c-289.9,183.1-579.8,366.2-869.7,544.2c-5.1,5.1-5.1,5.1-10.2,5.1c-5.1-5.1,0-10.2,0-15.3c0-20.3,0-35.6,0-50.9
			c0-40.7,0-76.3,0-117c0-30.5,0-66.1,0-96.6c0-86.5,0-178,0-264.5c0-96.6,0-188.2,0-284.8c0-5.1,0-10.2,0-15.3
			c0-76.3,0-152.6,0-228.9c5.1-10.2,0-20.3,0-35.6c0-40.7,0-81.4,0-122.1c0-61,0-127.1,0-188.2c0-55.9,0-111.9,0-172.9
			c0-45.8,0-96.6,0-142.4c0-20.3,0-40.7,0-61s0-40.7,0-66.1s0-55.9,0-81.4c0-20.3,0-35.6,0-50.9c5.1-5.1-10.2-10.2,5.1-20.3
			c356,218.7,706.9,442.5,1052.8,661.2"/>
		<path class="st5" d="M-1067.7,987.6c10.2,5.1,5.1,10.2,5.1,10.2c0,71.2,0,142.4,0,213.6h-5.1
			C-1067.7,1135.1-1067.7,1063.8-1067.7,987.6z"/>
		<path class="st6" d="M-1067.7,1211.3h5.1c0,66.1,0,132.2,0,198.4h-5.1C-1067.7,1343.6-1067.7,1277.5-1067.7,1211.3z"/>
		<path class="st7" d="M-1062.6,560.3c0,45.8,0,96.6,0,142.4h-5.1c0-45.8,0-96.6,0-142.4H-1062.6z"/>
		<path class="st8" d="M-1062.6,560.3h-5.1c0-40.7,0-86.5,0-127.1h5.1C-1062.6,479-1062.6,519.6-1062.6,560.3z"/>
		<path class="st9" d="M-1067.7,702.7h5.1c0,35.6,0,66.1,0,101.7c0,5.1,5.1,10.2-5.1,10.2C-1067.7,779-1067.7,738.3-1067.7,702.7z"
			/>
		<path class="st10" d="M-1062.6,433.2h-5.1c0-35.6,0-71.2,0-101.7h5.1C-1062.6,362-1062.6,397.6-1062.6,433.2z"/>
		<path class="st11" d="M-1062.6,1480.9c0,25.4,0,55.9,0,86.5h-5.1c0-25.4,0-55.9,0-86.5
			C-1062.6,1480.9-1062.6,1480.9-1062.6,1480.9z"/>
		<path class="st8" d="M-1062.6,1480.9h-5.1c0-25.4,0-45.8,0-71.2h5.1C-1062.6,1435.1-1062.6,1460.6-1062.6,1480.9z"/>
		<path class="st12" d="M-1062.6,173.8c0,20.3,0,40.7,0,66.1h-5.1c0-20.3,0-40.7,0-66.1H-1062.6z"/>
		<path class="st13" d="M-1067.7,239.9h5.1c0,15.3,0,30.5,0,45.8h-5.1C-1067.7,270.4-1067.7,255.2-1067.7,239.9z"/>
		<path class="st14" d="M-1067.7,285.7h5.1c0,15.3,0,30.5,0,45.8h-5.1C-1067.7,316.2-1067.7,301-1067.7,285.7z"/>
		<path class="st15" d="M-1062.6,173.8h-5.1c0-10.2,0-25.4,0-40.7h5.1C-1062.6,143.3-1062.6,158.5-1062.6,173.8z"/>
		<path class="st16" d="M-1067.7,1567.4h5.1c0,10.2,0,25.4,0,40.7h-5.1C-1067.7,1592.8-1067.7,1582.6-1067.7,1567.4z"/>
		<path class="st17" d="M-1062.6,133.1h-5.1c0-5.1,0-10.2,0-10.2c0-5.1,10.2,0,10.2-5.1v5.1C-1067.7,122.9-1057.6,128-1062.6,133.1z
			"/>
		<path class="st18" d="M-1067.7,1608h5.1c0,5.1,0,5.1,0,10.2v5.1C-1072.8,1613.1-1062.6,1613.1-1067.7,1608z"/>
	</g>
</g>
<path class="st22" d="M385,342c29,0,58.1,0,88,0c0.5,1.5,0.5,1.5,1,3c-29.7,0-59.4,0-90,0C384.3,344,384.7,343,385,342z"/>
</svg>
