<?xml version="1.0" encoding="utf-8"?>
<!-- Generator: Adobe Illustrator 28.0.0, SVG Export Plug-In . SVG Version: 6.00 Build 0)  -->
<svg version="1.1" id="Layer_1" xmlns="http://www.w3.org/2000/svg" xmlns:xlink="http://www.w3.org/1999/xlink" x="0px" y="0px"
	 viewBox="0 0 24 24" style="enable-background:new 0 0 24 24;" xml:space="preserve">
<style type="text/css">
	.st0{clip-path:url(#SVGID_00000024719776808641516170000003012939714730650262_);}
	.st1{fill:#FEFEFE;}
	.st2{fill:#009545;}
	.st3{fill:#EC2E38;}
	.st4{fill:#E12C35;}
	.st5{fill:#D62933;}
	.st6{fill:#D72A33;}
	.st7{fill:#CA2730;}
	.st8{fill:#E32C36;}
	.st9{fill:#C0252D;}
	.st10{fill:#BA242C;}
	.st11{fill:#901C22;}
	.st12{fill:#A11F26;}
	.st13{fill:#B2232A;}
	.st14{fill:#72161B;}
	.st15{fill:#9D2026;}
	.st16{fill:#4B0F12;}
	.st17{fill:#815B3D;}
</style>
<g>
	<defs>
		<path id="SVGID_1_" d="M22.5,5.8c-0.8,0.3-1.6,0.6-2.5,0.6c0.9-0.5,1.6-1.3,1.9-2.3c-0.8,0.5-1.8,0.8-2.7,1
			c-0.8-0.8-1.9-1.3-3.1-1.3c-2.4,0-4.3,1.8-4.3,4.1c0,0.3,0,0.6,0.1,0.9C8.3,8.7,5.1,7.1,3,4.6C2.6,5.2,2.4,5.9,2.4,6.7
			c0,1.4,0.8,2.7,1.9,3.4c-0.7,0-1.4-0.2-2-0.5v0.1c0,2,1.5,3.7,3.5,4c-0.4,0.1-0.7,0.1-1.1,0.1c-0.3,0-0.5,0-0.8-0.1
			c0.5,1.6,2.1,2.8,4,2.9c-1.5,1.1-3.3,1.8-5.4,1.8c-0.3,0-0.7,0-1-0.1c1.9,1.2,4.2,1.9,6.6,1.9c7.9,0,12.3-6.3,12.3-11.7l0-0.5
			C21.2,7.3,21.9,6.6,22.5,5.8z"/>
	</defs>
	<clipPath id="SVGID_00000175309816413472596340000016472291898848477588_">
		<use xlink:href="#SVGID_1_"  style="overflow:visible;"/>
	</clipPath>
	<g style="clip-path:url(#SVGID_00000175309816413472596340000016472291898848477588_);">
		<path d="M-25.6-1.9c51.8,0,103.6,0,155.4,0c0.5,0,0.6,0.1,0.6,0.3c0,4.2,0,8.3,0,12.5c-0.2,0.1-0.4,0.1-0.7,0.1s-0.6,0-0.9,0
			c-40.4,0-80.9,0-121.3,0c-0.4,0-0.9,0-1.3,0c-0.4-0.1-0.7-0.1-1.1-0.1c-1.3,0-2.6,0-4,0c-0.7,0-1.2-0.1-1.7-0.4
			c-6.7-3.4-13.3-6.7-20-9.9c-1.6-0.8-3.2-1.6-4.9-2.4C-25.6-1.7-25.7-1.7-25.6-1.9C-25.7-1.9-25.7-1.9-25.6-1.9z"/>
		<path class="st1" d="M-0.2,6.6c3.5,0,7,0,10.5,0c25.8,0,51.5,0,77.3,0c12.1,0,24.1,0,36.2,0c0.2,0,0.5,0,0.7,0c0,3.5,0,6.9,0,10.4
			c-0.2,0-0.5,0-0.7,0c-25.1,0-50.1,0-75.2,0C32.8,17,17,17,1.2,17c-2.3,0-4.6,0.1-7,0.1c-0.1-0.1,0.3-0.2,0.5-0.3
			c3.9-1.5,7.8-3.1,11.7-4.6c0.1-0.1,0.2-0.1,0.3-0.1c0.4-0.1,0.3-0.2,0-0.3c-0.5-0.2-0.9-0.4-1.3-0.5C1.8,9.8-1.5,8.3-5.1,7
			c-0.1,0-0.1-0.1-0.2-0.1c-0.1-0.1-0.3-0.1-0.2-0.2c0.1-0.1,0.3-0.1,0.4-0.1C-3.5,6.6-1.8,6.6-0.2,6.6z"/>
		<path class="st2" d="M126.6,16.5c0,3.2,0,6.4,0,9.6c0,0.2-0.1,0.2-0.6,0.2c-51.9,0-103.7,0-155.6,0c0,0,0,0,0-0.1l0,0
			c0.1-0.1,0.3-0.1,0.4-0.2c3.7-1.4,7.3-2.8,11.1-4.2c2.9-1.1,5.8-2.2,8.7-3.3c1.7-0.7,3.3-1.3,5-1.9c0.3-0.1,0.6-0.2,1.1-0.2
			c0.1,0,0.2,0,0.4,0c2.7,0,5.4-0.1,8.2-0.1c40,0,80,0,120,0C125.7,16.4,126.2,16.4,126.6,16.5z"/>
		<path class="st3" d="M2.6,4.2C2.9,4.4,3,4.5,3.2,4.6c3.1,1.9,6.2,3.9,9.4,5.8c0.6,0.4,0.6,0.4,0,0.7c-3.2,2-6.5,4-9.7,6.1
			c-0.1,0.1-0.2,0.2-0.4,0.2C1.2,18.2,0,19-1.3,19.8C-7,23.4-12.7,27-18.4,30.5c-0.1,0.1-0.1,0.1-0.2,0.1c-0.1-0.1,0-0.2,0-0.3
			c0-0.4,0-0.7,0-1c0-0.8,0-1.5,0-2.3c0-0.6,0-1.3,0-1.9c0-1.7,0-3.5,0-5.2c0-1.9,0-3.7,0-5.6c0-0.1,0-0.2,0-0.3c0-1.5,0-3,0-4.5
			c0.1-0.2,0-0.4,0-0.7c0-0.8,0-1.6,0-2.4c0-1.2,0-2.5,0-3.7c0-1.1,0-2.2,0-3.4c0-0.9,0-1.9,0-2.8c0-0.4,0-0.8,0-1.2s0-0.8,0-1.3
			s0-1.1,0-1.6c0-0.4,0-0.7,0-1c0.1-0.1-0.2-0.2,0.1-0.4c7,4.3,13.9,8.7,20.7,13"/>
		<path class="st4" d="M-25.9,18.2c0.2,0.1,0.1,0.2,0.1,0.2c0,1.4,0,2.8,0,4.2h-0.1C-25.9,21.1-25.9,19.7-25.9,18.2z"/>
		<path class="st5" d="M-25.9,22.6h0.1c0,1.3,0,2.6,0,3.9h-0.1C-25.9,25.2-25.9,23.9-25.9,22.6z"/>
		<path class="st6" d="M-25.8,9.8c0,0.9,0,1.9,0,2.8h-0.1c0-0.9,0-1.9,0-2.8H-25.8z"/>
		<path class="st7" d="M-25.8,9.8h-0.1c0-0.8,0-1.7,0-2.5h0.1C-25.8,8.2-25.8,9-25.8,9.8z"/>
		<path class="st8" d="M-25.9,12.6h0.1c0,0.7,0,1.3,0,2c0,0.1,0.1,0.2-0.1,0.2C-25.9,14.1-25.9,13.3-25.9,12.6z"/>
		<path class="st9" d="M-25.8,7.3h-0.1c0-0.7,0-1.4,0-2h0.1C-25.8,5.9-25.8,6.6-25.8,7.3z"/>
		<path class="st10" d="M-25.8,27.9c0,0.5,0,1.1,0,1.7h-0.1c0-0.5,0-1.1,0-1.7C-25.8,27.9-25.8,27.9-25.8,27.9z"/>
		<path class="st7" d="M-25.8,27.9h-0.1c0-0.5,0-0.9,0-1.4h0.1C-25.8,27-25.8,27.5-25.8,27.9z"/>
		<path class="st11" d="M-25.8,2.2c0,0.4,0,0.8,0,1.3h-0.1c0-0.4,0-0.8,0-1.3H-25.8z"/>
		<path class="st12" d="M-25.9,3.5h0.1c0,0.3,0,0.6,0,0.9h-0.1C-25.9,4.1-25.9,3.8-25.9,3.5z"/>
		<path class="st13" d="M-25.9,4.4h0.1c0,0.3,0,0.6,0,0.9h-0.1C-25.9,5-25.9,4.7-25.9,4.4z"/>
		<path class="st14" d="M-25.8,2.2h-0.1c0-0.2,0-0.5,0-0.8h0.1C-25.8,1.6-25.8,1.9-25.8,2.2z"/>
		<path class="st15" d="M-25.9,29.6h0.1c0,0.2,0,0.5,0,0.8h-0.1C-25.9,30.1-25.9,29.9-25.9,29.6z"/>
		<path class="st16" d="M-25.8,1.4h-0.1c0-0.1,0-0.2,0-0.2c0-0.1,0.2,0,0.2-0.1v0.1C-25.9,1.2-25.7,1.3-25.8,1.4z"/>
		<path class="st17" d="M-25.9,30.4h0.1c0,0.1,0,0.1,0,0.2v0.1C-26,30.5-25.8,30.5-25.9,30.4z"/>
	</g>
	<use xlink:href="#SVGID_1_"  style="overflow:visible;fill:none;stroke:#000000;stroke-width:0.25;stroke-miterlimit:10;"/>
</g>
</svg>
